<svg width="21" height="24" viewBox="0 0 21 24" fill="none" xmlns="http://www.w3.org/2000/svg">
<path d="M21 24H0V0H21V24Z" stroke="#E5E7EB"/>
<path d="M0 3.75003V10.7578C0 11.5547 0.314063 12.3188 0.876563 12.8813L9.12656 21.1313C10.2984 22.3032 12.1969 22.3032 13.3688 21.1313L19.6266 14.8735C20.7984 13.7016 20.7984 11.8032 19.6266 10.6313L11.3766 2.38128C10.8141 1.81878 10.05 1.50472 9.25313 1.50472H2.25C1.00781 1.50003 0 2.50784 0 3.75003ZM5.25 5.25003C5.64783 5.25003 6.02936 5.40806 6.31066 5.68937C6.59197 5.97067 6.75 6.3522 6.75 6.75003C6.75 7.14785 6.59197 7.52938 6.31066 7.81069C6.02936 8.09199 5.64783 8.25003 5.25 8.25003C4.85218 8.25003 4.47064 8.09199 4.18934 7.81069C3.90804 7.52938 3.75 7.14785 3.75 6.75003C3.75 6.3522 3.90804 5.97067 4.18934 5.68937C4.47064 5.40806 4.85218 5.25003 5.25 5.25003Z" fill="#6BC83E"/>
</svg>
