<svg xmlns="http://www.w3.org/2000/svg" viewBox="0 0 1080 1080"><defs><style>.cls-1,.cls-29{fill:#fff;}.cls-2{fill:#c1c1aa;}.cls-3{fill:#7bc14e;}.cls-4{fill:#0d72b1;}.cls-5{fill:#58a6cc;}.cls-6{fill:#d3c1ab;}.cls-7{fill:#d2bcab;}.cls-8{fill:#f3e8d7;}.cls-9{fill:#c7b5a0;}.cls-10{fill:#71c2e2;}.cls-11{fill:#92cdd3;}.cls-12{fill:#2d2932;}.cls-13{fill:#5b4d4d;}.cls-14{fill:none;stroke:#2d2932;stroke-miterlimit:10;stroke-width:0.25px;}.cls-15{fill:#514c50;}.cls-16{fill:#474346;}.cls-17{fill:#310000;}.cls-18{fill:#803f15;}.cls-19{fill:#2c1216;}.cls-20{fill:#89c0c6;}.cls-21{fill:#006838;}.cls-22{fill:#009345;}.cls-23{fill:#00adee;}.cls-24{fill:#f05a28;}.cls-25{fill:#ec1c24;}.cls-26{fill:#dd6658;}.cls-27{fill:#58962f;}.cls-28{fill:#97daef;}.cls-29{font-size:100px;font-family:Balbek-PersonalUseOnly, Balbek Personal Use Only;}.cls-30{letter-spacing:-0.01em;}</style></defs><g id="Layer_1" data-name="Layer 1"><rect class="cls-1" x="-24.5" y="-24.5" width="1129" height="1129"/></g><g id="Layer_4" data-name="Layer 4"><rect class="cls-2" x="349.17" y="289.46" width="25.95" height="55.9"/><rect class="cls-2" x="690.48" y="289.46" width="25.95" height="55.9"/><rect class="cls-3" x="306.27" y="192" width="449.37" height="118.1" rx="5.67"/><rect class="cls-4" x="168.21" y="363.36" width="739.8" height="479.91"/><path class="cls-5" d="M324.2,811a5,5,0,0,1-5,5h-28.9a5.07,5.07,0,0,1-5.06-5v-7.12a5.07,5.07,0,0,1,5.06-5h28.9a5,5,0,0,1,5,5Z"/><path class="cls-5" d="M224.33,655.72a5.08,5.08,0,0,1-5.05,5.06h-28.9a5.08,5.08,0,0,1-5-5.06v-7.11a5.07,5.07,0,0,1,5-5.06h28.9a5.08,5.08,0,0,1,5.05,5.06Z"/><path class="cls-5" d="M885.08,602.3a6.4,6.4,0,0,1-6.38,6.38H842.17a6.41,6.41,0,0,1-6.39-6.38v-9a6.41,6.41,0,0,1,6.39-6.39H878.7a6.41,6.41,0,0,1,6.38,6.39Z"/><path class="cls-5" d="M897.68,613.17a6.39,6.39,0,0,1-6.37,6.4H854.77a6.41,6.41,0,0,1-6.38-6.4v-9a6.41,6.41,0,0,1,6.38-6.38h36.54a6.39,6.39,0,0,1,6.37,6.38Z"/><path class="cls-5" d="M530.38,437a6.43,6.43,0,0,1-6.4,6.4H487.45a6.43,6.43,0,0,1-6.4-6.4v-9a6.42,6.42,0,0,1,6.4-6.39H524a6.42,6.42,0,0,1,6.4,6.39Z"/><path class="cls-5" d="M312.65,470.92a6.38,6.38,0,0,1-6.38,6.38H269.73a6.4,6.4,0,0,1-6.39-6.38v-9a6.4,6.4,0,0,1,6.39-6.38h36.54a6.38,6.38,0,0,1,6.38,6.38Z"/><path class="cls-5" d="M281.53,485.7a6.41,6.41,0,0,1-6.38,6.4H238.62a6.42,6.42,0,0,1-6.39-6.4v-9a6.4,6.4,0,0,1,6.39-6.38h36.53a6.39,6.39,0,0,1,6.38,6.38Z"/><rect class="cls-6" x="159.68" y="341.22" width="748.78" height="35.78"/><rect class="cls-7" x="139.19" y="375.27" width="789.75" height="12.7"/><polygon class="cls-8" points="908.46 364.29 159.68 364.29 139.19 375.27 928.93 375.27 908.46 364.29"/><polygon class="cls-8" points="889.05 334.85 179.1 334.85 159.68 341.57 908.46 341.57 889.05 334.85"/><polygon class="cls-6" points="128.72 864.77 951.28 864.77 924.97 843.27 155.04 843.27 128.72 864.77"/><rect class="cls-8" x="128.72" y="864.78" width="822.57" height="23.22"/><rect class="cls-8" x="452.04" y="508.67" width="177.16" height="334.6"/><rect class="cls-9" x="457.78" y="512.47" width="165.69" height="330.8"/><rect class="cls-10" x="461.78" y="517.07" width="157.66" height="326.2"/><rect class="cls-4" x="478.99" y="556.59" width="123.26" height="286.68"/><rect class="cls-4" x="475.55" y="545.53" width="130.14" height="121.98"/><rect class="cls-11" x="478.99" y="548.75" width="123.26" height="115.52"/><path class="cls-1" d="M483.45,652.16l4.71-3.88c3-2.42,7.31-6,12.57-10s11.35-8.89,18-13.9,13.74-10.32,20.86-15.6,14.33-10.45,21.12-15.25,13.19-9.19,18.64-13,10.12-6.81,13.33-9l5.12-3.34L593.08,572c-3,2.41-7.31,6-12.57,10s-11.35,8.9-18,13.91-13.74,10.31-20.86,15.59S527.33,622,520.54,626.82s-13.19,9.19-18.64,13-10.13,6.81-13.34,9Z"/><path class="cls-1" d="M503.54,613s.8-.76,2.26-2,3.52-3.07,6.08-5.13c5.1-4.16,12.07-9.46,19.2-14.53s14.45-9.88,20.06-13.31c2.79-1.74,5.21-3.06,6.86-4s2.65-1.47,2.65-1.47-.8.76-2.26,2-3.52,3.07-6.08,5.13c-5.1,4.16-12.07,9.46-19.2,14.53s-14.46,9.87-20.07,13.3c-2.79,1.74-5.2,3.06-6.85,4S503.54,613,503.54,613Z"/><path class="cls-1" d="M550.17,632.93s1.66-2.29,4.47-5.39,6.69-7,10.79-10.76,8.42-7.2,11.8-9.65,5.81-3.9,5.81-3.9a69.77,69.77,0,0,1-4.46,5.39,152.34,152.34,0,0,1-10.8,10.76c-4.12,3.7-8.42,7.2-11.8,9.65S550.17,632.93,550.17,632.93Z"/><rect class="cls-10" x="471.47" y="820.12" width="143.9" height="23.16"/><rect class="cls-10" x="468.68" y="667.51" width="143.89" height="23.15"/><path class="cls-12" d="M611.89,687.46a9.64,9.64,0,1,1-9.64-9.64A9.64,9.64,0,0,1,611.89,687.46Z"/><rect class="cls-12" x="597.43" y="687.46" width="9.64" height="25.45"/><rect class="cls-13" x="599.4" y="690.49" width="5.71" height="19.38"/><path class="cls-13" d="M608.4,687.46a6.15,6.15,0,1,1-6.15-6.16A6.15,6.15,0,0,1,608.4,687.46Z"/><polyline class="cls-14" points="512.1 700.76 545 677.05 569.08 700.76"/><path class="cls-12" d="M547.57,679a3,3,0,1,1-3-3A3,3,0,0,1,547.57,679Z"/><path class="cls-1" d="M570.36,697.32H510.87a5.17,5.17,0,0,0-5.16,5.17v28.24a5.17,5.17,0,0,0,5.16,5.17h59.49a5.16,5.16,0,0,0,5.16-5.17V702.49A5.16,5.16,0,0,0,570.36,697.32Z"/><path class="cls-14" d="M567.06,700.18H514.17a4.49,4.49,0,0,0-4.59,4.39v24.09a4.51,4.51,0,0,0,4.59,4.4h52.89a4.51,4.51,0,0,0,4.59-4.4V704.57A4.49,4.49,0,0,0,567.06,700.18Z"/><path class="cls-12" d="M517.14,710.5a7.74,7.74,0,0,1,11.07,0,7.86,7.86,0,0,1,0,11.09,7.74,7.74,0,0,1-11.07,0,7.88,7.88,0,0,1,0-11.09Zm9.5,1.58a5.63,5.63,0,0,0-4-1.67,5.47,5.47,0,0,0-3.93,1.67,5.6,5.6,0,0,0,0,7.94,5.5,5.5,0,0,0,3.93,1.66,5.64,5.64,0,0,0,4-9.6Z"/><path class="cls-12" d="M537.45,708.37a5.12,5.12,0,0,1,0,10.24h-3.38v5.11h-2.23V708.37Zm0,8a2.91,2.91,0,0,0,0-5.81h-3.38v5.81Z"/><path class="cls-12" d="M545.59,721.51h7.13v2.21h-9.36V708.39h9.34v2.22h-7.11v4.32h7v2.23h-7Z"/><path class="cls-12" d="M553.71,723.72V708.35l1.71,0,7.48,10.81V708.37h2.2v15.35h-1.76L555.93,713v10.72Z"/><rect class="cls-15" x="143.08" y="737.07" width="87.37" height="115.73"/><polygon class="cls-16" points="237.89 727.54 150.52 727.54 143.08 737.07 230.46 737.07 237.89 727.54"/><polygon class="cls-16" points="168.21 727.54 168.21 720.05 155.97 720.05 143.08 737.07 230.46 737.07 168.21 727.54"/><polygon class="cls-17" points="230.46 852.8 237.89 843.27 237.89 727.54 230.46 737.07 230.46 852.8"/><path class="cls-16" d="M189.65,762a5.08,5.08,0,0,1-5.06,5.06h-28.9a5.08,5.08,0,0,1-5.05-5.06v-7.12a5.07,5.07,0,0,1,5.05-5h28.9a5.07,5.07,0,0,1,5.06,5Z"/><path class="cls-16" d="M216.39,773.38a5.06,5.06,0,0,1-5,5.06H182.44a5.08,5.08,0,0,1-5.05-5.06v-7.12a5.07,5.07,0,0,1,5.05-5h28.91a5.06,5.06,0,0,1,5,5Z"/><path class="cls-16" d="M200.5,800.19a5,5,0,0,1-5,5H166.57a5.06,5.06,0,0,1-5.06-5v-7.12a5.07,5.07,0,0,1,5.06-5.05h28.89a5.05,5.05,0,0,1,5,5.05Z"/><path class="cls-16" d="M224.33,827.06a5.08,5.08,0,0,1-5.05,5.06h-28.9a5.07,5.07,0,0,1-5-5.06V820a5.06,5.06,0,0,1,5-5.05h28.9a5.07,5.07,0,0,1,5.05,5.05Z"/><rect class="cls-15" x="230.22" y="779.69" width="192.16" height="73.11"/><polygon class="cls-16" points="429.81 773.67 237.64 773.67 230.22 779.69 422.38 779.69 429.81 773.67"/><polygon class="cls-17" points="422.38 852.8 429.81 846.78 429.81 773.67 422.38 779.69 422.38 852.8"/><path class="cls-16" d="M276.78,808.18a5.07,5.07,0,0,1-5.07,5.05H242.82a5.07,5.07,0,0,1-5-5.05v-7.11a5.07,5.07,0,0,1,5-5.05h28.89a5.07,5.07,0,0,1,5.07,5.05Z"/><path class="cls-16" d="M306,815.07a5.09,5.09,0,0,1-5.06,5H272a5.08,5.08,0,0,1-5.05-5V808A5.07,5.07,0,0,1,272,802.9h28.9A5.08,5.08,0,0,1,306,808Z"/><path class="cls-16" d="M403.76,837.71a5.06,5.06,0,0,1-5.05,5H369.82a5.06,5.06,0,0,1-5.05-5v-7.12a5.06,5.06,0,0,1,5.05-5.05h28.89a5.06,5.06,0,0,1,5.05,5.05Z"/><rect class="cls-18" x="247.39" y="514.21" width="160.82" height="244.42"/><polygon class="cls-7" points="416.31 764.17 239.97 764.17 252.44 751.98 403.83 751.98 416.31 764.17"/><polygon class="cls-19" points="407.34 762.84 248.93 762.84 260.13 753.3 396.14 753.3 407.34 762.84"/><rect class="cls-12" x="252.44" y="520.85" width="151.1" height="231.13"/><rect class="cls-11" x="255.57" y="525.08" width="144.54" height="222.67"/><polygon class="cls-20" points="400.11 747.75 255.52 747.75 255.52 585.13 400.11 747.75"/><polygon class="cls-8" points="409.31 783.18 246.33 783.18 240.37 764.17 416.31 764.17 409.31 783.18"/><rect class="cls-13" x="252.44" y="574.37" width="148.43" height="11.6"/><polygon class="cls-12" points="255.57 570.07 400.87 570.07 400.87 574.37 252.44 574.37 255.57 570.07"/><polygon class="cls-20" points="400.74 570.07 255.52 570.07 255.52 525.65 400.74 570.07"/><path class="cls-21" d="M379.07,759.37c.69-2.44,1.39-5.27,2-8.37a95.14,95.14,0,0,0,1.57-16.62,97,97,0,0,0-4.45,16.1c-.61,3.24-1,6.29-1.19,8.89Z"/><path class="cls-22" d="M384.25,744a28.08,28.08,0,0,1-1.89,9.62,28.26,28.26,0,0,1-1.7-9.66,27.93,27.93,0,0,1,1.9-9.61A27.49,27.49,0,0,1,384.25,744Z"/><path class="cls-21" d="M376.29,759.37A101.44,101.44,0,0,0,378,743.2a96.68,96.68,0,0,0-1.18-16.64,96.13,96.13,0,0,0-1.75,16.6,97.36,97.36,0,0,0,1.08,16.21Z"/><path class="cls-22" d="M380,735.8a28.12,28.12,0,0,1-.29,9.8,26.89,26.89,0,0,1-3-19A27.5,27.5,0,0,1,380,735.8Z"/><path class="cls-21" d="M371.82,759.37a98.94,98.94,0,0,0,.65-9.92,97.41,97.41,0,0,0-1.28-16.64A93.42,93.42,0,0,0,370,759.37Z"/><path class="cls-22" d="M374.45,742a28.05,28.05,0,0,1-.22,9.8,26.66,26.66,0,0,1-3.1-19A27.72,27.72,0,0,1,374.45,742Z"/><path class="cls-21" d="M367,759.37h1.07A97.47,97.47,0,0,0,367,746a94.57,94.57,0,0,0-4-16.21,96.75,96.75,0,0,0,1.1,16.65A101.23,101.23,0,0,0,367,759.37Z"/><path class="cls-22" d="M367.7,738.38a27.65,27.65,0,0,1,1.38,9.71,26.86,26.86,0,0,1-6.17-18.26A27.92,27.92,0,0,1,367.7,738.38Z"/><path class="cls-21" d="M360.39,759.37c.66-2.39,1.34-5.14,1.9-8.15a96.45,96.45,0,0,0,1.59-16.62,94.2,94.2,0,0,0-4.46,16.09c-.59,3.17-.95,6.12-1.19,8.68Z"/><path class="cls-22" d="M365.5,744.25a27.63,27.63,0,0,1-1.89,9.63,26.71,26.71,0,0,1,.2-19.28A27.42,27.42,0,0,1,365.5,744.25Z"/><path class="cls-21" d="M357.9,759.37a94.92,94.92,0,0,0,.51-32.81,96.68,96.68,0,0,0-1.76,16.6,97.66,97.66,0,0,0,1.1,16.21Z"/><path class="cls-22" d="M361.62,735.8a27.84,27.84,0,0,1-.29,9.8,27.61,27.61,0,0,1-3.26-9.25,27.9,27.9,0,0,1,.3-9.79A28.14,28.14,0,0,1,361.62,735.8Z"/><path class="cls-21" d="M355,759.37c.15-2,.27-4.1.3-6.36A97.41,97.41,0,0,0,354,736.37,96.94,96.94,0,0,0,352.33,753c0,2.26,0,4.41.15,6.39Z"/><path class="cls-22" d="M357.24,745.6a27.9,27.9,0,0,1-.23,9.8,28.47,28.47,0,0,1-3.32-9.22,28,28,0,0,1,.23-9.81A28,28,0,0,1,357.24,745.6Z"/><path class="cls-21" d="M351.39,759.37h.95a100,100,0,0,0-1.1-13.8,96.55,96.55,0,0,0-4-16.2,96.79,96.79,0,0,0,1.1,16.65A100,100,0,0,0,351.39,759.37Z"/><path class="cls-22" d="M352,737.94a27.82,27.82,0,0,1,1.38,9.7,26.86,26.86,0,0,1-6.17-18.26A27.66,27.66,0,0,1,352,737.94Z"/><path class="cls-21" d="M346.05,759.37c.36-1.46.7-3,1-4.6a97.45,97.45,0,0,0,1.57-16.62,97.89,97.89,0,0,0-4.46,16.1c-.31,1.78-.56,3.48-.77,5.12Z"/><path class="cls-22" d="M350.27,747.81a28.06,28.06,0,0,1-1.89,9.61,27.49,27.49,0,0,1-1.71-9.65,28,28,0,0,1,1.9-9.62A28.48,28.48,0,0,1,350.27,747.81Z"/><path class="cls-21" d="M343.27,759.37a97.64,97.64,0,0,0,1.06-12.61,95.77,95.77,0,0,0-1.16-16.65,96.64,96.64,0,0,0-1.76,16.59,100.13,100.13,0,0,0,.62,12.67Z"/><path class="cls-22" d="M346.37,739.35a27.91,27.91,0,0,1-.29,9.81,27.9,27.9,0,0,1-3.27-9.26,28.48,28.48,0,0,1,.3-9.79A27.76,27.76,0,0,1,346.37,739.35Z"/><path class="cls-21" d="M339.92,759.37c0-.93.09-1.85.09-2.79a95.15,95.15,0,0,0-1.28-16.66,97.59,97.59,0,0,0-1.64,16.61c0,1,0,1.9,0,2.84Z"/><path class="cls-22" d="M342,749.16a28.09,28.09,0,0,1-.21,9.78,27.49,27.49,0,0,1-3.33-9.22,28.05,28.05,0,0,1,.22-9.8A27.83,27.83,0,0,1,342,749.16Z"/><path class="cls-21" d="M335.15,759.37H337a92.68,92.68,0,0,0-1-10.25,94.34,94.34,0,0,0-4-16.2,98,98,0,0,0,1.1,16.65A96.3,96.3,0,0,0,335.15,759.37Z"/><path class="cls-22" d="M336.72,741.49a27.74,27.74,0,0,1,1.39,9.7,26.86,26.86,0,0,1-6.17-18.26A28,28,0,0,1,336.72,741.49Z"/><path class="cls-21" d="M330.22,759.37c.38-1.6.77-3.27,1.08-5a95.19,95.19,0,0,0,1.59-16.61,94.46,94.46,0,0,0-4.45,16.08c-.37,2-.62,3.82-.85,5.58Z"/><path class="cls-22" d="M334.53,747.35a28,28,0,0,1-1.9,9.62,26.69,26.69,0,0,1,.2-19.27A27.89,27.89,0,0,1,334.53,747.35Z"/><path class="cls-21" d="M327.46,759.37a97.38,97.38,0,0,0,1.15-13.07,96.13,96.13,0,0,0-1.17-16.64,95.63,95.63,0,0,0-1.76,16.59,103.77,103.77,0,0,0,.67,13.12Z"/><path class="cls-22" d="M330.63,738.9a27.85,27.85,0,0,1-.27,9.8,27.5,27.5,0,0,1-3.27-9.25,28.2,28.2,0,0,1,.28-9.79A27.5,27.5,0,0,1,330.63,738.9Z"/><path class="cls-21" d="M324.17,759.37c.06-1.06.09-2.14.12-3.26A97.08,97.08,0,0,0,323,739.48a96.1,96.1,0,0,0-1.66,16.6c0,1.13,0,2.21,0,3.29Z"/><path class="cls-22" d="M326.26,748.7a27.85,27.85,0,0,1-.21,9.79,26.63,26.63,0,0,1-3.1-19A27.72,27.72,0,0,1,326.26,748.7Z"/><path class="cls-21" d="M319.52,759.37h1.75a93.48,93.48,0,0,0-1-10.7,97.17,97.17,0,0,0-4-16.21,96.09,96.09,0,0,0,1.09,16.65A102.84,102.84,0,0,0,319.52,759.37Z"/><path class="cls-22" d="M321,741a28,28,0,0,1,1.37,9.71,26.83,26.83,0,0,1-6.16-18.26A27.92,27.92,0,0,1,321,741Z"/><path class="cls-21" d="M314.59,759.37c.36-1.46.69-3,1-4.6a94.56,94.56,0,0,0,1.58-16.62,96.73,96.73,0,0,0-4.46,16.1c-.31,1.78-.57,3.48-.77,5.12Z"/><path class="cls-22" d="M318.79,747.81a27.92,27.92,0,0,1-1.88,9.61,26.83,26.83,0,0,1,.18-19.27A27.65,27.65,0,0,1,318.79,747.81Z"/><path class="cls-21" d="M311.8,759.37a99.19,99.19,0,0,0,1.07-12.61,95.14,95.14,0,0,0-1.17-16.65,96.31,96.31,0,0,0-1.13,29.26Z"/><path class="cls-22" d="M314.9,739.35a28.06,28.06,0,0,1-.28,9.81,26.65,26.65,0,0,1-3-19A27.88,27.88,0,0,1,314.9,739.35Z"/><path class="cls-21" d="M308.47,759.37c0-.93,0-1.85.08-2.79a97.52,97.52,0,0,0-1.28-16.66,95.21,95.21,0,0,0-1.64,16.61c0,1,0,1.9,0,2.84Z"/><path class="cls-22" d="M310.54,749.16a27.79,27.79,0,0,1-.23,9.78,27.36,27.36,0,0,1-3.32-9.22,27.9,27.9,0,0,1,.23-9.8A28.09,28.09,0,0,1,310.54,749.16Z"/><path class="cls-21" d="M303.68,759.37h1.84c-.14-2.86-.42-6.39-1-10.25a96.6,96.6,0,0,0-4-16.2,94.4,94.4,0,0,0,1.1,16.65A99.57,99.57,0,0,0,303.68,759.37Z"/><path class="cls-22" d="M305.26,741.49a27.59,27.59,0,0,1,1.38,9.7,26.66,26.66,0,0,1-6.16-18.26A28,28,0,0,1,305.26,741.49Z"/><path class="cls-21" d="M298.75,759.37c.39-1.6.77-3.27,1.09-5a96.91,96.91,0,0,0,1.58-16.61A95.57,95.57,0,0,0,297,753.79c-.37,2-.63,3.82-.85,5.58Z"/><path class="cls-22" d="M303.06,747.35a27.61,27.61,0,0,1-1.89,9.62,26.9,26.9,0,0,1,.19-19.27A27.62,27.62,0,0,1,303.06,747.35Z"/><path class="cls-21" d="M296,759.37a101.13,101.13,0,0,0,1.14-13.07A97.33,97.33,0,0,0,296,729.66a95.63,95.63,0,0,0-1.76,16.59,98.1,98.1,0,0,0,.68,13.12Z"/><path class="cls-22" d="M299.17,738.9a27.71,27.71,0,0,1-.28,9.8,27.75,27.75,0,0,1-3.27-9.25,28.05,28.05,0,0,1,.29-9.79A27.5,27.5,0,0,1,299.17,738.9Z"/><path class="cls-21" d="M292.71,759.37c.06-1.06.11-2.14.11-3.26a95.89,95.89,0,0,0-1.28-16.63,96.1,96.1,0,0,0-1.66,16.6c0,1.13,0,2.21,0,3.29Z"/><path class="cls-22" d="M294.8,748.7a27.69,27.69,0,0,1-.24,9.79,27.55,27.55,0,0,1-3.29-9.22,28,28,0,0,1,.2-9.79A27.75,27.75,0,0,1,294.8,748.7Z"/><path class="cls-21" d="M288.06,759.37h1.76a104.19,104.19,0,0,0-1-10.7,95.42,95.42,0,0,0-4-16.21,94.4,94.4,0,0,0,1.1,16.65A99.84,99.84,0,0,0,288.06,759.37Z"/><path class="cls-22" d="M289.53,741a28,28,0,0,1,1.37,9.71,28.14,28.14,0,0,1-4.77-8.57,27.67,27.67,0,0,1-1.39-9.69A27.92,27.92,0,0,1,289.53,741Z"/><path class="cls-21" d="M302.11,759.37c.43-1.72.85-3.55,1.2-5.49a97.06,97.06,0,0,0,1.58-16.62,95.3,95.3,0,0,0-4.46,16.09c-.39,2.11-.68,4.13-.91,6Z"/><path class="cls-22" d="M306.53,746.9a28.18,28.18,0,0,1-1.89,9.63,26.65,26.65,0,0,1,.19-19.28A27.89,27.89,0,0,1,306.53,746.9Z"/><path class="cls-21" d="M299.4,759.37a102.73,102.73,0,0,0,1.2-13.52,96.9,96.9,0,0,0-1.16-16.64,96.21,96.21,0,0,0-1.77,16.6,101,101,0,0,0,.73,13.56Z"/><path class="cls-22" d="M302.63,738.45a27.88,27.88,0,0,1-.29,9.81,26.69,26.69,0,0,1-3-19A27.73,27.73,0,0,1,302.63,738.45Z"/><path class="cls-21" d="M296.16,759.37c.06-1.2.11-2.43.11-3.7A95.72,95.72,0,0,0,295,739a95.79,95.79,0,0,0-1.65,16.62c0,1.28,0,2.52,0,3.73Z"/><path class="cls-22" d="M298.27,748.26a28,28,0,0,1-.24,9.79,27,27,0,0,1-3.09-19A27.86,27.86,0,0,1,298.27,748.26Z"/><path class="cls-21" d="M291.65,759.37h1.65a95.63,95.63,0,0,0-1.07-11.15,94.39,94.39,0,0,0-4-16.2,97.29,97.29,0,0,0,1.09,16.65A99.09,99.09,0,0,0,291.65,759.37Z"/><path class="cls-22" d="M293,740.59a27.91,27.91,0,0,1,1.38,9.71,28.07,28.07,0,0,1-4.78-8.56A27.63,27.63,0,0,1,288.2,732,27.91,27.91,0,0,1,293,740.59Z"/><path class="cls-21" d="M286.26,759.37c.46-1.85.93-3.84,1.31-6a95.71,95.71,0,0,0,1.58-16.61,96.17,96.17,0,0,0-4.46,16.07c-.41,2.3-.71,4.48-.95,6.49Z"/><path class="cls-22" d="M290.8,746.45a28,28,0,0,1-1.89,9.62,26.62,26.62,0,0,1,.19-19.27A27.89,27.89,0,0,1,290.8,746.45Z"/><path class="cls-21" d="M283.58,759.37a99.16,99.16,0,0,0,1.29-14,95.14,95.14,0,0,0-1.17-16.65,96.89,96.89,0,0,0-1.76,16.61,101.77,101.77,0,0,0,.77,14Z"/><path class="cls-22" d="M286.9,738a28.05,28.05,0,0,1-.29,9.79,26.79,26.79,0,0,1-3-19A28.25,28.25,0,0,1,286.9,738Z"/><path class="cls-21" d="M280.39,759.37c.08-1.34.15-2.72.15-4.16a95.67,95.67,0,0,0-1.27-16.64,95.75,95.75,0,0,0-1.65,16.61c0,1.46,0,2.84.05,4.19Z"/><path class="cls-22" d="M282.53,747.79a27.6,27.6,0,0,1-.23,9.8,26.71,26.71,0,0,1-3.09-19A28,28,0,0,1,282.53,747.79Z"/><path class="cls-21" d="M276,759.37h1.54a98.83,98.83,0,0,0-1.08-11.6,96,96,0,0,0-4-16.21,96.18,96.18,0,0,0,1.09,16.66A100.61,100.61,0,0,0,276,759.37Z"/><path class="cls-22" d="M277.26,740.12a28.23,28.23,0,0,1,1.38,9.71,26.86,26.86,0,0,1-6.17-18.26A28.08,28.08,0,0,1,277.26,740.12Z"/><path class="cls-23" d="M300.12,738.39a3.7,3.7,0,0,0-3.7-3.7,3.44,3.44,0,0,0-1.22.22,3.7,3.7,0,1,0-6.64,3.24,3.69,3.69,0,1,0,2.88,6.75,3.63,3.63,0,0,0,2.88,1.4,3.67,3.67,0,0,0,3.7-3.68,3.43,3.43,0,0,0-.11-.86A3.67,3.67,0,0,0,300.12,738.39Z"/><path class="cls-10" d="M295.07,739.48a2,2,0,1,1-2.05-2.06A2,2,0,0,1,295.07,739.48Z"/><path class="cls-24" d="M325.9,743.16a3.71,3.71,0,0,0-3.71-3.71,3.48,3.48,0,0,0-1.22.22,3.71,3.71,0,0,0-7.13,1.43,3.64,3.64,0,0,0,.49,1.82,3.69,3.69,0,0,0,1.08,7.23,3.63,3.63,0,0,0,1.78-.47,3.71,3.71,0,0,0,6.61-2.31,3.94,3.94,0,0,0-.1-.84A3.7,3.7,0,0,0,325.9,743.16Z"/><path class="cls-10" d="M320.84,744.22a2,2,0,1,1-2-2A2.05,2.05,0,0,1,320.84,744.22Z"/><path class="cls-25" d="M351.69,733.3a3.67,3.67,0,0,0-4.92-3.49,3.75,3.75,0,0,0-3.43-2.27,3.71,3.71,0,0,0-3.72,3.7,3.77,3.77,0,0,0,.51,1.82,3.69,3.69,0,0,0,1.07,7.23,3.47,3.47,0,0,0,1.79-.48,3.69,3.69,0,0,0,6.6-2.3,3.77,3.77,0,0,0-.09-.83A3.7,3.7,0,0,0,351.69,733.3Z"/><path class="cls-10" d="M346.64,734.38a2,2,0,1,1-2.05-2A2,2,0,0,1,346.64,734.38Z"/><path class="cls-26" d="M376.62,743.16a3.7,3.7,0,0,0-3.71-3.71,3.42,3.42,0,0,0-1.21.22,3.71,3.71,0,0,0-7.14,1.43,3.87,3.87,0,0,0,.5,1.82,3.69,3.69,0,1,0,2.86,6.76,3.71,3.71,0,0,0,6.61-2.31,3.4,3.4,0,0,0-.11-.84A3.67,3.67,0,0,0,376.62,743.16Z"/><path class="cls-10" d="M371.58,744.22a2.05,2.05,0,1,1-2.05-2A2.06,2.06,0,0,1,371.58,744.22Z"/><path class="cls-5" d="M751.94,808.78a5.05,5.05,0,0,0,5,5.05h28.91a5.06,5.06,0,0,0,5-5.05v-7.11a5.07,5.07,0,0,0-5-5.06H757a5.06,5.06,0,0,0-5,5.06Z"/><rect class="cls-15" x="845.7" y="734.85" width="87.34" height="115.75"/><polygon class="cls-16" points="838.27 725.33 925.62 725.33 933.05 734.85 845.7 734.85 838.27 725.33"/><polygon class="cls-16" points="907.94 725.33 907.94 717.84 920.18 717.84 933.05 734.85 845.7 734.85 907.94 725.33"/><polygon class="cls-17" points="845.7 850.6 838.27 841.07 838.27 725.33 845.7 734.85 845.7 850.6"/><rect class="cls-16" x="886.51" y="747.67" width="39.01" height="17.22" rx="5.05"/><path class="cls-16" d="M859.76,771.18a5.05,5.05,0,0,0,5,5.05h28.91a5.06,5.06,0,0,0,5-5.05v-7.12a5.07,5.07,0,0,0-5-5H864.8a5.06,5.06,0,0,0-5,5Z"/><path class="cls-16" d="M875.64,798a5.07,5.07,0,0,0,5,5.06h28.91a5.08,5.08,0,0,0,5-5.06v-7.12a5.07,5.07,0,0,0-5-5H880.68a5.07,5.07,0,0,0-5,5Z"/><path class="cls-16" d="M851.82,824.86a5.06,5.06,0,0,0,5,5h28.9a5.07,5.07,0,0,0,5.06-5v-7.12a5.08,5.08,0,0,0-5.06-5.06h-28.9a5.07,5.07,0,0,0-5,5.06Z"/><rect class="cls-15" x="653.76" y="777.49" width="192.17" height="73.11"/><polygon class="cls-16" points="646.33 771.47 838.5 771.47 845.93 777.49 653.76 777.49 646.33 771.47"/><polygon class="cls-17" points="653.76 850.6 646.33 844.58 646.33 771.47 653.76 777.49 653.76 850.6"/><path class="cls-16" d="M799.38,806a5.07,5.07,0,0,0,5,5.06h28.9a5.07,5.07,0,0,0,5-5.06v-7.11a5.06,5.06,0,0,0-5-5.05h-28.9a5.06,5.06,0,0,0-5,5.05Z"/><path class="cls-16" d="M770.2,812.86a5.06,5.06,0,0,0,5.06,5h28.89a5.06,5.06,0,0,0,5.06-5v-7.11a5.07,5.07,0,0,0-5.06-5.06H775.26a5.07,5.07,0,0,0-5.06,5.06Z"/><rect class="cls-16" x="672.39" y="823.32" width="39" height="17.22" rx="5.05"/><rect class="cls-18" x="667.93" y="512.01" width="160.81" height="244.4"/><polygon class="cls-7" points="659.85 761.96 836.18 761.96 823.71 749.77 672.32 749.77 659.85 761.96"/><polygon class="cls-19" points="668.8 760.64 827.22 760.64 816 751.08 680 751.08 668.8 760.64"/><rect class="cls-12" x="672.61" y="518.66" width="151.1" height="231.12"/><rect class="cls-11" x="676.04" y="522.87" width="144.54" height="222.68"/><polygon class="cls-20" points="676.04 745.55 820.62 745.55 820.62 582.93 676.04 745.55"/><polygon class="cls-8" points="666.84 780.97 829.82 780.97 835.78 761.96 659.85 761.96 666.84 780.97"/><rect class="cls-13" x="675.28" y="572.16" width="148.43" height="11.6"/><polygon class="cls-12" points="820.58 567.85 675.28 567.85 675.28 572.16 823.71 572.16 820.58 567.85"/><polygon class="cls-20" points="675.41 567.85 820.62 567.85 820.62 523.43 675.41 567.85"/><path class="cls-21" d="M697.06,757.15c-.68-2.43-1.38-5.26-1.94-8.36a96.45,96.45,0,0,1-1.59-16.62A95.3,95.3,0,0,1,698,748.26c.61,3.25,1,6.3,1.2,8.89Z"/><path class="cls-22" d="M691.89,741.82a28,28,0,0,0,1.89,9.62,26.62,26.62,0,0,0-.19-19.27A27.89,27.89,0,0,0,691.89,741.82Z"/><path class="cls-21" d="M699.87,757.15A98.19,98.19,0,0,1,698.19,741a95.68,95.68,0,0,1,1.18-16.65,94.7,94.7,0,0,1,.65,32.8Z"/><path class="cls-22" d="M696.16,733.59a28.15,28.15,0,0,0,.29,9.8,26.89,26.89,0,0,0,3-19A27.5,27.5,0,0,0,696.16,733.59Z"/><path class="cls-21" d="M704.34,757.15a93.12,93.12,0,0,1-.65-9.91A96.21,96.21,0,0,1,705,730.6a95.21,95.21,0,0,1,1.64,16.61,93.66,93.66,0,0,1-.42,9.94Z"/><path class="cls-22" d="M701.7,739.83a28.29,28.29,0,0,0,.22,9.79,26.57,26.57,0,0,0,3.09-19A28,28,0,0,0,701.7,739.83Z"/><path class="cls-21" d="M709.17,757.15h-1.08a96.11,96.11,0,0,1,1.11-13.33,94.88,94.88,0,0,1,4-16.21,97.39,97.39,0,0,1-1.09,16.66A102.55,102.55,0,0,1,709.17,757.15Z"/><path class="cls-22" d="M708.44,736.19a27.54,27.54,0,0,0-1.38,9.69,26.67,26.67,0,0,0,6.18-18.25A27.8,27.8,0,0,0,708.44,736.19Z"/><path class="cls-21" d="M715.74,757.15c-.65-2.38-1.32-5.13-1.87-8.13a95.27,95.27,0,0,1-1.59-16.62,95,95,0,0,1,4.46,16.08c.58,3.16.94,6.13,1.17,8.67Z"/><path class="cls-22" d="M710.64,742a28.08,28.08,0,0,0,1.89,9.62,26.62,26.62,0,0,0-.19-19.27A27.89,27.89,0,0,0,710.64,742Z"/><path class="cls-21" d="M718.24,757.15a94.85,94.85,0,0,1-.51-32.8,97.16,97.16,0,0,1,1.77,16.58,101.59,101.59,0,0,1-1.09,16.22Z"/><path class="cls-22" d="M714.53,733.59a28,28,0,0,0,.28,9.8,27.39,27.39,0,0,0,3.27-9.25,28.08,28.08,0,0,0-.29-9.79A27.76,27.76,0,0,0,714.53,733.59Z"/><path class="cls-21" d="M721.17,757.15c-.13-2-.26-4.1-.28-6.34a96.26,96.26,0,0,1,1.28-16.65,97.33,97.33,0,0,1,1.66,16.61c0,2.26-.05,4.42-.16,6.38Z"/><path class="cls-22" d="M718.9,743.39a28.09,28.09,0,0,0,.23,9.79,26.57,26.57,0,0,0,3.09-19A28,28,0,0,0,718.9,743.39Z"/><path class="cls-21" d="M724.75,757.15h-.94a98.47,98.47,0,0,1,1.11-13.78,95.42,95.42,0,0,1,4-16.21,96.09,96.09,0,0,1-1.09,16.65A98,98,0,0,1,724.75,757.15Z"/><path class="cls-22" d="M724.18,735.72a27.59,27.59,0,0,0-1.38,9.7,27.76,27.76,0,0,0,4.78-8.56,28.22,28.22,0,0,0,1.39-9.69A27.69,27.69,0,0,0,724.18,735.72Z"/><path class="cls-21" d="M730.08,757.15c-.34-1.46-.69-3-1-4.58A96.91,96.91,0,0,1,727.52,736,95,95,0,0,1,732,752c.33,1.79.58,3.49.78,5.12Z"/><path class="cls-22" d="M725.88,745.6a28,28,0,0,0,1.89,9.61,26.62,26.62,0,0,0-.19-19.27A27.92,27.92,0,0,0,725.88,745.6Z"/><path class="cls-21" d="M732.89,757.15a98.91,98.91,0,0,1-1.08-12.61A96.77,96.77,0,0,1,733,727.9a96.21,96.21,0,0,1,1.77,16.6,101.58,101.58,0,0,1-.62,12.65Z"/><path class="cls-22" d="M729.78,737.15a27.8,27.8,0,0,0,.29,9.79,26.73,26.73,0,0,0,3-19A28.13,28.13,0,0,0,729.78,737.15Z"/><path class="cls-21" d="M736.22,757.15c0-.92-.08-1.83-.08-2.79a94.51,94.51,0,0,1,1.27-16.64,95.71,95.71,0,0,1,1.65,16.6c0,1,0,1.9,0,2.83Z"/><path class="cls-22" d="M734.16,746.94a27.43,27.43,0,0,0,.22,9.79,27.58,27.58,0,0,0,3.3-9.21,28.18,28.18,0,0,0-.21-9.8A27.47,27.47,0,0,0,734.16,746.94Z"/><path class="cls-21" d="M741,757.15h-1.84a100.38,100.38,0,0,1,1-10.24,97.77,97.77,0,0,1,4-16.2,97.33,97.33,0,0,1-1.09,16.65A93.63,93.63,0,0,1,741,757.15Z"/><path class="cls-22" d="M739.43,739.27A27.74,27.74,0,0,0,738,749a27.9,27.9,0,0,0,4.79-8.56,28.26,28.26,0,0,0,1.39-9.69A27.31,27.31,0,0,0,739.43,739.27Z"/><path class="cls-21" d="M745.94,757.15c-.4-1.58-.78-3.25-1.1-5a95.57,95.57,0,0,1-1.58-16.6,96.12,96.12,0,0,1,4.46,16.08c.36,1.95.62,3.82.84,5.57Z"/><path class="cls-22" d="M741.6,745.15a28.07,28.07,0,0,0,1.91,9.61,26.72,26.72,0,0,0-.2-19.28A28.64,28.64,0,0,0,741.6,745.15Z"/><path class="cls-21" d="M748.68,757.15a94.87,94.87,0,0,1,0-29.71,94.81,94.81,0,0,1,1.08,29.71Z"/><path class="cls-22" d="M745.51,736.7a27.8,27.8,0,0,0,.29,9.79,26.81,26.81,0,0,0,3-19A27.88,27.88,0,0,0,745.51,736.7Z"/><path class="cls-21" d="M752,757.15c-.05-1-.08-2.13-.1-3.25a95.67,95.67,0,0,1,1.27-16.64,94.4,94.4,0,0,1,1.65,16.6c0,1.13,0,2.23,0,3.29Z"/><path class="cls-22" d="M749.89,746.49a28,28,0,0,0,.22,9.79,26.71,26.71,0,0,0,3.09-19A27.58,27.58,0,0,0,749.89,746.49Z"/><path class="cls-21" d="M756.61,757.15h-1.73a103.63,103.63,0,0,1,1-10.69,96.27,96.27,0,0,1,4-16.2,96,96,0,0,1-1.09,16.64A100.63,100.63,0,0,1,756.61,757.15Z"/><path class="cls-22" d="M755.15,738.82a28.19,28.19,0,0,0-1.38,9.71,26.73,26.73,0,0,0,6.17-18.26A27.92,27.92,0,0,0,755.15,738.82Z"/><path class="cls-21" d="M761.55,757.15c-.34-1.46-.69-3-1-4.58A95.06,95.06,0,0,1,759,736,96.17,96.17,0,0,1,763.45,752c.33,1.79.57,3.49.78,5.12Z"/><path class="cls-22" d="M757.34,745.6a27.72,27.72,0,0,0,1.91,9.61,28,28,0,0,0,1.68-9.65,27.6,27.6,0,0,0-1.88-9.62A28.06,28.06,0,0,0,757.34,745.6Z"/><path class="cls-21" d="M764.35,757.15a96,96,0,0,1,.09-29.25,96.21,96.21,0,0,1,1.77,16.6,99.67,99.67,0,0,1-.62,12.65Z"/><path class="cls-22" d="M761.25,737.15a27.52,27.52,0,0,0,.29,9.79,26.79,26.79,0,0,0,3-19A27.73,27.73,0,0,0,761.25,737.15Z"/><path class="cls-21" d="M767.68,757.15c0-.92-.07-1.83-.07-2.79a95.67,95.67,0,0,1,1.27-16.64,95.71,95.71,0,0,1,1.65,16.6c0,1,0,1.9,0,2.83Z"/><path class="cls-22" d="M765.61,746.94a27.83,27.83,0,0,0,.23,9.79,26.67,26.67,0,0,0,3.09-19A27.86,27.86,0,0,0,765.61,746.94Z"/><path class="cls-21" d="M772.47,757.15h-1.84a97.9,97.9,0,0,1,1-10.24,94.92,94.92,0,0,1,4-16.2,96.12,96.12,0,0,1-1.09,16.65C773.94,751.08,773.18,754.44,772.47,757.15Z"/><path class="cls-22" d="M770.89,739.27a27.86,27.86,0,0,0-1.38,9.7,26.73,26.73,0,0,0,6.17-18.25A28,28,0,0,0,770.89,739.27Z"/><path class="cls-21" d="M777.4,757.15c-.39-1.58-.77-3.25-1.09-5a95.57,95.57,0,0,1-1.58-16.6,95,95,0,0,1,4.44,16.08c.37,1.95.63,3.82.86,5.57Z"/><path class="cls-22" d="M773.09,745.15a28.06,28.06,0,0,0,1.87,9.61,26.65,26.65,0,0,0-.17-19.28A27.67,27.67,0,0,0,773.09,745.15Z"/><path class="cls-21" d="M780.15,757.15a94.87,94.87,0,0,1,0-29.71,96.89,96.89,0,0,1,1.76,16.61,105.23,105.23,0,0,1-.67,13.1Z"/><path class="cls-22" d="M777,736.7a28.08,28.08,0,0,0,.29,9.79,26.61,26.61,0,0,0,3-19A27.76,27.76,0,0,0,777,736.7Z"/><path class="cls-21" d="M783.43,757.15c-.06-1-.09-2.13-.1-3.25a96.21,96.21,0,0,1,1.28-16.64,95.55,95.55,0,0,1,1.65,16.6c0,1.13,0,2.23,0,3.29Z"/><path class="cls-22" d="M781.35,746.49a27.56,27.56,0,0,0,.23,9.79,26.84,26.84,0,0,0,3.09-19A28.24,28.24,0,0,0,781.35,746.49Z"/><path class="cls-21" d="M788.08,757.15h-1.74a100.91,100.91,0,0,1,1-10.69,95.67,95.67,0,0,1,4-16.2,94.94,94.94,0,0,1-1.11,16.64A95.93,95.93,0,0,1,788.08,757.15Z"/><path class="cls-22" d="M786.63,738.82a27.51,27.51,0,0,0-1.39,9.71,26.86,26.86,0,0,0,6.17-18.26A27.78,27.78,0,0,0,786.63,738.82Z"/><path class="cls-21" d="M774,757.15c-.43-1.71-.84-3.54-1.2-5.49a95.57,95.57,0,0,1-1.58-16.6,96.12,96.12,0,0,1,4.46,16.08c.38,2.12.67,4.13.91,6Z"/><path class="cls-22" d="M769.63,744.69a27.28,27.28,0,0,0,1.89,9.62,26.59,26.59,0,0,0-.19-19.26A27.27,27.27,0,0,0,769.63,744.69Z"/><path class="cls-21" d="M776.76,757.15a95.46,95.46,0,0,1-1.21-13.5A96.77,96.77,0,0,1,776.71,727a96,96,0,0,1,1.77,16.58,100.86,100.86,0,0,1-.73,13.56Z"/><path class="cls-22" d="M773.52,736.24a28,28,0,0,0,.28,9.8,26.65,26.65,0,0,0,3-19A27.65,27.65,0,0,0,773.52,736.24Z"/><path class="cls-21" d="M780,757.15c-.07-1.19-.12-2.42-.13-3.69a94.91,94.91,0,0,1,1.28-16.64,95.55,95.55,0,0,1,1.65,16.6c0,1.28,0,2.54,0,3.73Z"/><path class="cls-22" d="M777.89,746a27.67,27.67,0,0,0,.22,9.79,26.76,26.76,0,0,0,3.1-19A27.86,27.86,0,0,0,777.89,746Z"/><path class="cls-21" d="M784.5,757.15h-1.64a97,97,0,0,1,1-11.13,95.42,95.42,0,0,1,4-16.21,94.72,94.72,0,0,1-3.4,27.34Z"/><path class="cls-22" d="M783.16,738.38a28,28,0,0,0-1.39,9.69A26.76,26.76,0,0,0,788,729.82,28.05,28.05,0,0,0,783.16,738.38Z"/><path class="cls-21" d="M789.88,757.15c-.47-1.83-.91-3.82-1.31-5.94A95.51,95.51,0,0,1,787,734.6a95.62,95.62,0,0,1,4.43,16.08c.44,2.29.74,4.47,1,6.47Z"/><path class="cls-22" d="M785.36,744.24a27.67,27.67,0,0,0,1.88,9.62,26.69,26.69,0,0,0-.18-19.27A27.62,27.62,0,0,0,785.36,744.24Z"/><path class="cls-21" d="M792.57,757.15a96.6,96.6,0,0,1-1.3-14,95.49,95.49,0,0,1,1.18-16.64,94.93,94.93,0,0,1,1.75,16.59,97.07,97.07,0,0,1-.77,14Z"/><path class="cls-22" d="M789.25,735.8a28.08,28.08,0,0,0,.29,9.79,26.73,26.73,0,0,0,3-19A28,28,0,0,0,789.25,735.8Z"/><path class="cls-21" d="M795.76,757.15c-.07-1.33-.15-2.71-.15-4.16a95.43,95.43,0,0,1,1.27-16.62,95.55,95.55,0,0,1,1.65,16.6c0,1.46,0,2.83-.06,4.18Z"/><path class="cls-22" d="M793.61,745.58a28,28,0,0,0,.24,9.8,27.83,27.83,0,0,0,3.31-9.22,27.56,27.56,0,0,0-.23-9.79A27.86,27.86,0,0,0,793.61,745.58Z"/><path class="cls-21" d="M800.12,757.15h-1.54a96.19,96.19,0,0,1,1.06-11.59,98.42,98.42,0,0,1,4-16.22A95.76,95.76,0,0,1,802.53,746,100.12,100.12,0,0,1,800.12,757.15Z"/><path class="cls-22" d="M798.9,737.92a28,28,0,0,0-1.39,9.7,26.76,26.76,0,0,0,6.18-18.25A27.53,27.53,0,0,0,798.9,737.92Z"/><path class="cls-23" d="M776,736.19a3.69,3.69,0,0,1,3.7-3.71,4,4,0,0,1,1.21.21,3.71,3.71,0,0,1,7.13,1.43,3.64,3.64,0,0,1-.49,1.82,3.7,3.7,0,0,1-1.08,7.24,3.74,3.74,0,0,1-1.8-.48,3.68,3.68,0,0,1-6.58-2.3,4.69,4.69,0,0,1,.09-.84A3.71,3.71,0,0,1,776,736.19Z"/><path class="cls-10" d="M781.09,737.26a2,2,0,1,0,2-2A2,2,0,0,0,781.09,737.26Z"/><path class="cls-24" d="M750.26,740.93a6.22,6.22,0,0,1,12.06-2,3.61,3.61,0,0,1-.51,1.83,3.69,3.69,0,0,1-1.07,7.23,3.45,3.45,0,0,1-1.79-.48,3.7,3.7,0,0,1-6.6-2.3,4.7,4.7,0,0,1,.1-.84A3.69,3.69,0,0,1,750.26,740.93Z"/><path class="cls-10" d="M755.3,742a2.05,2.05,0,1,0,2-2A2,2,0,0,0,755.3,742Z"/><path class="cls-25" d="M724.45,731.08a7.43,7.43,0,1,1,10.49,7,3.51,3.51,0,0,1-1.79-.49,3.68,3.68,0,0,1-6.59-2.29,4.6,4.6,0,0,1,.09-.84A3.72,3.72,0,0,1,724.45,731.08Z"/><path class="cls-10" d="M729.5,732.17a2,2,0,1,0,2-2A2.05,2.05,0,0,0,729.5,732.17Z"/><path class="cls-26" d="M699.54,740.93a3.7,3.7,0,0,1,3.68-3.7,3.78,3.78,0,0,1,1.23.23,3.7,3.7,0,0,1,7.12,1.42,3.6,3.6,0,0,1-.49,1.83,3.67,3.67,0,0,1,2.63,3.53,3.71,3.71,0,0,1-3.71,3.7,3.53,3.53,0,0,1-1.79-.48,3.64,3.64,0,0,1-2.89,1.4,3.7,3.7,0,0,1-3.69-3.7,3.38,3.38,0,0,1,.09-.84A3.69,3.69,0,0,1,699.54,740.93Z"/><path class="cls-10" d="M704.57,742a2,2,0,1,0,2-2A2,2,0,0,0,704.57,742Z"/><rect class="cls-15" x="266.94" y="435.91" width="526.35" height="13.51"/><polygon class="cls-16" points="779.01 421.64 286 421.64 266.94 435.9 793.29 435.9 779.01 421.64"/><polygon class="cls-27" points="766.47 420.61 291.36 420.61 234.4 530.93 837.31 530.93 766.47 420.61"/><polygon class="cls-28" points="714.87 420.61 345.86 420.61 301.61 530.93 769.89 530.93 714.87 420.61"/><polygon class="cls-27" points="663.95 420.61 400.01 420.61 368.38 530.93 703.29 530.93 663.95 420.61"/><polygon class="cls-28" points="612.7 420.61 454.34 420.61 435.35 530.93 636.31 530.93 612.7 420.61"/><polygon class="cls-27" points="561.45 420.61 508.68 420.61 502.35 530.93 569.34 530.93 561.45 420.61"/><path class="cls-3" d="M234.4,530.93V556.2h0a33.46,33.46,0,0,0,66.89,0h0V530.93Z"/><path class="cls-3" d="M301.38,530.93V556.2h0a33.46,33.46,0,0,0,66.9,0h.06V530.93Z"/><path class="cls-3" d="M435.35,530.93V556.2h0a33.47,33.47,0,0,0,66.92,0h0V530.93Z"/><path class="cls-3" d="M368.38,530.93V556.2h0a33.46,33.46,0,0,0,66.89,0h0V530.93Z"/><path class="cls-3" d="M502.35,530.93V556.2h0a33.46,33.46,0,0,0,66.89,0h.06V530.93Z"/><path class="cls-3" d="M569.33,530.93V556.2h.06a33.45,33.45,0,0,0,66.88,0h0V530.93Z"/><path class="cls-3" d="M703.29,530.93V556.2h.06a33.46,33.46,0,0,0,66.89,0h0V530.93Z"/><path class="cls-3" d="M636.31,530.93V556.2h.05a33.46,33.46,0,0,0,66.9,0h0V530.93Z"/><path class="cls-3" d="M769.89,530.93V556.2h.05a33.46,33.46,0,0,0,66.9,0h0V530.93Z"/><text class="cls-29" transform="translate(333.2 287.13)">AR <tspan class="cls-30" x="135.3" y="0">F</tspan><tspan x="175.5" y="0">OODS</tspan></text></g></svg>