<svg xmlns="http://www.w3.org/2000/svg" viewBox="0 0 1080 1080"><defs><style>.cls-1{fill:#fff;}.cls-2{fill:#0d72b1;}</style></defs><g id="Layer_1" data-name="Layer 1"><rect class="cls-1" x="-24.5" y="-24.5" width="1129" height="1129"/></g><g id="Layer_4" data-name="Layer 4"><path class="cls-2" d="M908.48,573.16a26.66,26.66,0,0,1,.39-8.65c6.63-26.67,2.56-51.9-11.25-75.24-6.08-10.3-14.46-19.22-22.15-29.23,4.75-3.4,10.35-6.45,14.6-10.83,2.11-2.16,3.44-8.51,2.08-9.84-2.29-2.24-7.73-3.67-10.56-2.46-6,2.55-11,7.25-16.61,10.62-2.26,1.35-5.61,2.72-7.83,2-13-4.07-25.77-8.72-38.94-13.3,1.45-1.56,3.13-3.49,5-5.27,20-19.62,40.35-38.93,60-58.9,15.2-15.43,10.91-39.59-8-49.24-11.75-6-25.4-3.66-36.3,6.74-15.42,14.72-30.61,29.68-46.24,44.89-3.69-17.92-6.44-34.79-10.75-51.26-6.43-24.49-6.16-48.94-1.72-73.53.49-2.66,2.76-6.38,5-7.11,10.26-3.34,14.38-10.71,15.94-20.57,1-6.19,2.43-12.3,3.82-18.39,5.36-23.65-5.27-40.35-28.85-45.26q-27.57-5.75-55.14-11.57c-14.77-3.12-31,3-36.36,17.17-5.2,13.62-7.37,28.56-9.46,43.12-.56,3.88,4.19,8.42,6.1,12.82,1.28,2.92,3.14,6.43,2.54,9.2a164,164,0,0,1-32,68.31c-15.08,19.15-30.37,38.39-34.65,63.53,0,.31-1,.44-2.22.92-2.68-3.45-5.21-7.32-8.33-10.63-15-15.78-23.4-33.56-24.37-56.14s-8.3-27.76-31.39-26.82c-29.3,1.2-58.58,3.38-87.84,5.48-17.62,1.25-35.2,3.15-54.39,4.91,1.61-4.74,2.54-7.79,3.69-10.77,11.19-29-.92-62.7-28.21-78.39-22.23-12.77-53.3-9.87-71.2,6.65-20.89,19.28-26.54,48-14.16,73.16,4.4,8.91,9.29,17.56,14.41,27.19l-10.44,1.14c-21.05,2.24-29.13,16.63-19.13,35.56,3.79,7.16,9.7,13.21,14.89,19.58s5.23,6.44-3.48,11.09c-12.7-36.48-32.63-64.53-77-58.48-24.4,3.32-45.58,26-49.33,50.6-2.69,17.86,3.27,33.68,11.74,49,9.19,16.64,25.53,21.22,44,25.25-4.87,3.38-7.86,5.32-10.71,7.43-15.61,11.58-20.41,30.61-12.57,49.59,7.78,18.8,22,26.65,42.66,23.34,6.16-1,12.22-2.7,18.38-3.72,5.21-.86,10.51-1.17,17.62-1.93-2.3,2.57-2.86,3.33-3.54,4-11.64,10.46-14.91,22.38-9.37,34.29,5.19,11.19,14.86,15.2,30.94,13.37,7-.79,14.1-.76,20.92-1.08.3,1.75.5,2.13.38,2.35a25.11,25.11,0,0,1-1.58,2.46c-17.37,23.44-17,49-5.23,73.67,4.32,9.06,15.1,16.69,24.7,21,8,3.63,10.67,7.43,11.7,15.3q13.55,104.45,27.63,208.84c4.45,33.1,26.47,54.74,56,54.78q172.65.15,345.28,0c17.35,0,32.24-6.54,41.08-21.41,6.59-11.07,12.14-23.67,14.38-36.26,12.43-69.76,23.81-139.72,35.22-209.65,1-6.25,3.46-8.59,9.51-10.11,18.8-4.75,33.75-22,34.23-41.41C912.36,601.17,909.67,587.16,908.48,573.16ZM850.1,345.47c8.39-8.18,17.27-8.38,21.43-.46,3.6,6.86.1,11.74-4.76,16.46Q814,412.77,761.32,464.26q-72.89,71.07-145.85,142c-3.37,3.27-7.65,5.6-12.6,9.15-3.89-3.45-8.52-5.66-9.45-8.92A16.53,16.53,0,0,1,595.59,594c4-5.55,9.59-9.89,14.55-14.72Q730.11,462.37,850.1,345.47ZM744,511.16c-2.13,9.89-4.12,19.83-6.53,29.67-.34,1.36-2.71,3.08-4.2,3.15-7.71.32-15.42.15-23,.15l31.84-33.63C742.74,510.71,743.37,510.93,744,511.16ZM677.9,419.48c7.82-5.85,16.49-9.08,25.74-3.75,10.21,5.89,14.2,16.08,16.48,27,.26,1.24-.84,3.2-1.9,4.24-21.85,21.42-43.79,42.76-66.57,64.94C641.55,481.77,654.77,436.81,677.9,419.48Zm21.81-242.57c2.23-8.57,8.43-12.71,17.21-11,19.42,3.7,38.81,7.63,58.1,12,9.24,2.09,13.08,8.38,11.56,17.7-1.48,9-3.52,18-5.51,28l-87.14-18.36C696,194.89,697.4,185.8,699.71,176.91ZM634.34,373.24c3.91-19.86,11.39-37.7,24.45-53.21,21.78-25.89,37.45-54.9,44.57-88.22.26-1.24,1-2.36,1.95-4.4,18.58,3.91,37.12,7.82,56.46,11.87-.73,6.52-1.13,12.37-2.08,18.12-4.35,26.54-1.44,52.55,5.34,78.33,4.55,17.29,8.61,34.73,4.67,52.65a41.1,41.1,0,0,1-7.35,15.32c-7,9.15-14.81,17.62-23.49,27.79-4.08-7.42-5.93-10.85-7.85-14.24-14.51-25.45-41.5-31.22-64.58-13.16-23.58,18.43-34,44.26-36.47,73.05-1.16,13.55.79,27.56,2.83,41.14,1.67,11.14-7.85,25.31-19.34,25.9-4.21.21-8.44,0-14.43,0,3.84-18.78,7.28-35.85,10.83-52.91C618,452,626.59,412.68,634.34,373.24Zm-55.22-25.95c10.68,13.84,20.66,26.43,30.17,39.35,1.43,1.95,1.35,5.63.81,8.29q-14.29,70.19-29,140.31c-2.15,10.23-4.09,10.82-21.37,7.7-2.4-26.9-3.46-54.3-7.64-81.2-4.33-28,.84-53.36,12.78-78.31C570.24,372.26,574,360.37,579.12,347.29Zm-45,62.44c-.82,2-4.42,4-6.86,4.16-56.47,4.27-113,8.29-171.45,12.5,8-18.45,16.61-35.07,22.54-52.58,5.62-16.54,14.7-22.42,32.56-23.26,48-2.25,95.93-7.27,143.88-11.18,1.59-.12,3.17,0,6.58,0C551.94,363.82,543.23,386.87,534.08,409.73Zm6.16,133.6H359.13c-2.84-32.37-5.63-64.09-8.51-97l180-13.3C533.85,469.83,537,506.11,540.24,543.33ZM552.82,287c6.33-.49,9.91,1.68,10.43,8.46.57,7.46,1.66,14.87,2.65,23.42L390.33,333.34c0-9.61-.73-18.43.4-27,.37-2.82,5.39-6.95,8.55-7.21C450.43,294.77,501.64,291,552.82,287Zm-254.7,31c5.88-.61,10.61-1.23,15.34-1.59,19-1.44,25.25-11.81,17-28.63-4.66-9.45-10.19-18.46-14.81-27.93-9.22-18.93-2.47-42.18,15.05-53a42.15,42.15,0,0,1,54.52,8.91c11.51,14.09,17.61,29,8.55,47.27-4.3,8.65-6.88,17.51-14.67,24.74-5.27,4.91-6.56,14.55-8.58,22.34-1.16,4.47-.21,9.48-.21,14.26-1.19.07-2.37.15-3.56.21q-3.47-41.62-6.88-83.28c-.19-2.3-.1-4.62-.06-6.92.1-6.71-2-12.25-9.59-12.33s-9.91,5.34-9.63,12.13c.6,14.48.11,29.13,2.16,43.4,3.77,26,8.07,52.06,14.17,77.61,2.71,11.4,1.93,20.31-5.59,30.14-1.88-6.17-3.24-11.7-5.25-17-4.34-11.4-11.94-18.52-24.21-22.46C309.77,342,303.72,330.76,298.12,318ZM291.93,537.5c-2.69-.07-6.95-2-7.59-4-.73-2.31,1-6.37,3-8.37,2.69-2.72,6.59-4.22,10-6.24,11.4-6.79,12.58-18.81,1.55-26.3-5.37-3.67-12.8-6.27-19.19-6.06-12.75.43-25.46,2.87-38.1,5-11.73,2-17.2-.42-22.3-11-5-10.35-3.35-20.4,5.1-26.61,4.17-3.1,9.81-4.32,13.7-7.66,4.62-4,11.24-9.36,11.2-14.1,0-5.53-5.21-12.58-10.19-16.12-5.6-4-13.35-5.26-20.35-6.95-18.34-4.44-31.07-21.88-31.4-43.71-.27-17.19,13.34-35.39,29.94-40,18.72-5.24,38.1,2.35,47.49,19.23,5.26,9.49,9.39,19.61,14.4,29.25,8.55,16.42,20.13,17.72,32.53,3.87,3.24-3.61,6.39-7.33,10.51-12.08,2.52,4.12,5.25,6.87,6,10.07,3.15,13.47,5.82,27,8.42,40.64a15.74,15.74,0,0,1-.77,6.75c-2.23,8-4.66,16-7.18,24.58-2.15-2.75-4.91-6.17-7.58-9.66-25.43-33.26-55.86-61.36-89.31-86.35-.52-.4-1.08-.76-1.61-1.14-5.35-3.91-11.1-5.67-15.61.52s-1.05,10.89,4.16,15.08c13.87,11.15,28,22,41.2,33.92,25.12,22.61,46.22,48.58,64.89,76.84,12.94,19.58,12.5,40.82,13.9,60.78C322.54,537.68,307.23,537.87,291.93,537.5ZM851,639.63c-67.58-1.19-135.22-.36-202.83-.36-3.3,0-7.34-1-9.71.45-3.63,2.3-8,6.18-8.43,9.82-.32,2.6,4.88,6.59,8.36,8.7,2.2,1.32,5.8.34,8.76.34h204c-3.69,22.7-7.15,44.38-10.75,66-8.26,49.77-16.26,99.57-25.15,149.22-1.7,9.43-6.14,18.75-11,27.14-5.46,9.39-14.82,13.42-26,13.41q-173.64-.12-347.3-.1c-19.42,0-33.61-14.67-36.84-38.29-6.88-50.31-13.31-100.69-20-151-2.84-21.55-5.79-43.08-8.93-66.36H573.5c6.39,0,11.46-2.33,11.59-9.32.15-7.59-5.21-10-12-10H358.4c-23.2,0-33.63-10.58-33.66-34,0-3.29,0-6.6,0-9.9.14-20.46,11.36-31.78,31.94-31.81q104.91-.11,209.77,0h29.39c.26.76.54,1.52.82,2.29-5,4.78-10.2,9.36-14.92,14.39-11.93,12.71-12.17,31.13-.83,42.92,11.89,12.35,30.48,13.28,43.57,1.08,18.8-17.54,37.08-35.65,55.28-53.82,4.74-4.72,9.46-7,16.38-7,54.42.28,108.84.14,163.26.18,22.64,0,32.56,10.82,33.75,33.17C894.82,627.74,884,640.2,851,639.63ZM893.5,554c-13.63-10.59-29.5-9.9-45.36-9.78-26.35.17-52.68,0-79,.05H756.86c4.45-20.82,6.62-41,13.25-59.67,10.26-28.84,48.79-38.86,75.31-21.21-4.42,6.44-9.06,12.74-13.18,19.37-3.16,5.09-8.69,11.07-.84,16.15s10.63-2.39,14.16-7.4c4.66-6.64,9.55-13.13,14.25-19.54C885.19,486.73,901.64,527,893.5,554Z"/><path class="cls-1" d="M893.17,596.76c-1.19-22.35-11.11-33.16-33.75-33.17-54.42,0-108.84.1-163.26-.18-6.92,0-11.64,2.3-16.38,7-18.2,18.17-36.48,36.28-55.28,53.82-13.09,12.2-31.68,11.27-43.57-1.08-11.34-11.79-11.1-30.21.83-42.92,4.72-5,9.94-9.61,14.92-14.39-.28-.77-.56-1.53-.82-2.29H566.47q-104.88,0-209.77,0c-20.58,0-31.8,11.35-31.94,31.81,0,3.3,0,6.61,0,9.9,0,23.38,10.46,34,33.66,34H573.12c6.76,0,12.12,2.39,12,10-.13,7-5.2,9.34-11.59,9.32H365.21c3.14,23.28,6.09,44.81,8.93,66.36,6.65,50.34,13.08,100.72,20,151,3.23,23.62,17.42,38.27,36.84,38.29q173.66.16,347.3.1c11.17,0,20.53-4,26-13.41,4.88-8.39,9.32-17.71,11-27.14,8.89-49.65,16.89-99.45,25.15-149.22,3.6-21.63,7.06-43.31,10.75-66h-204c-3,0-6.56,1-8.76-.34-3.48-2.11-8.68-6.1-8.36-8.7.45-3.64,4.8-7.52,8.43-9.82,2.37-1.5,6.41-.44,9.71-.45,67.61,0,135.25-.83,202.83.36C884,640.2,894.82,627.74,893.17,596.76ZM457.31,774c0,23.36,0,46.75,0,70.11,0,6.9,0,14.18-9.23,14.44s-9.88-6.81-9.87-13.85q0-70.62,0-141.24c0-10.19,3.9-15.26,10.72-14.11,7,1.19,8.36,6.39,8.35,12.54C457.27,725.91,457.31,750,457.31,774Zm62.91,70.59c0,7.1-.79,14-9.9,13.93s-9.54-7.2-9.51-14.21q0-16.15,0-32.34,0-19.41,0-38.83V753.64c0-16.88,0-33.78-.06-50.68,0-6.9,1.22-13.38,9.35-13.57,8.83-.21,10.1,6.62,10.09,13.85Q520.16,773.91,520.22,844.58Zm52.68,14c-8.47-.07-9.63-6.43-9.48-13.26.05-2.63,0-5.27,0-7.91V707.93c0-2.62-.92-5.84.24-7.77,2.42-4,5.48-9.73,9.13-10.46,6.45-1.29,9.82,4,9.83,10.59q0,18.53,0,37.06t0,37q0,8.9,0,17.78c0,17.79,0,35.57,0,53.36C582.71,852.51,581.25,858.62,572.9,858.55Zm32-199.95c-6.19.2-12-1.58-12.27-9.17-.31-8.28,5.76-10.13,12.75-10.13,6.47,0,12.34,1.3,12.59,9.19C618.28,657,612.36,658.68,604.94,658.6Zm146.88,43.92c0-4.31,3-10.42,6.54-12.45,6.23-3.62,11.83,2.21,11.87,11.78q.13,25.53,0,51.06,0,10.5,0,21,0,19.35,0,38.68,0,16.21,0,32.41c0,6.71-.51,13.25-9.1,13.53s-9.71-6-9.69-12.86C751.57,798,751.37,750.24,751.82,702.52ZM698,689.37c8.31-.22,9.8,6.19,9.8,13.06q0,71.63,0,143.25c0,6.84-1.32,13.12-9.86,12.88s-9.31-6.65-9.28-13.44c.08-23.7,0-47.42,0-71.13s.06-47.42,0-71.12C688.6,696,689.76,689.58,698,689.37Zm-65.52.94c6.35-4.16,12.79,1.94,12.85,11.74.13,24.06,0,48.13,0,72.19,0,23.41-.07,46.8,0,70.21,0,7.15-.83,14-9.79,14.06s-9.89-6.84-9.87-14c0-47.13-.14-94.27.32-141.41C626.1,698.69,629,692.61,632.47,690.31Z"/><path class="cls-1" d="M599,544.22c3.83-18.78,7.28-35.86,10.83-52.91C618,452,626.58,412.68,634.34,373.24c3.9-19.87,11.39-37.7,24.44-53.21,21.79-25.89,37.46-54.9,44.58-88.22.26-1.23,1-2.36,1.95-4.4l56.46,11.88c-.73,6.52-1.14,12.35-2.08,18.1-4.35,26.55-1.44,52.56,5.34,78.34,4.55,17.28,8.62,34.73,4.66,52.65a40.71,40.71,0,0,1-7.34,15.32c-7,9.15-14.81,17.62-23.5,27.78-4.08-7.41-5.91-10.84-7.84-14.23-14.51-25.44-41.5-31.22-64.59-13.16-23.57,18.44-34,44.26-36.45,73.05-1.16,13.55.79,27.56,2.82,41.14,1.67,11.14-7.85,25.31-19.33,25.9C609.24,544.4,605,544.22,599,544.22Z"/><path class="cls-1" d="M359.12,543.33c-2.83-32.38-5.61-64.09-8.5-97l180-13.3c3.21,36.85,6.36,73.13,9.6,110.34Z"/><path class="cls-1" d="M322.19,365.65c2.52,4.12,5.23,6.87,6,10.07,3.16,13.47,5.82,27,8.42,40.64a15.74,15.74,0,0,1-.77,6.75c-2.23,8-4.65,16-7.18,24.58-2.15-2.74-4.9-6.17-7.57-9.66-25.45-33.26-55.87-61.37-89.32-86.35-.52-.4-1.08-.75-1.61-1.14-5.35-3.91-11.1-5.67-15.61.51s-1.05,10.9,4.17,15.1c13.87,11.14,28,22,41.2,33.92,25.11,22.59,46.21,48.56,64.88,76.83,12.94,19.58,12.51,40.81,13.91,60.78-16.15,0-31.45.19-46.75-.18-2.7-.06-7-2-7.6-4-.74-2.3,1-6.35,3-8.35,2.67-2.73,6.59-4.24,10-6.25,11.4-6.78,12.58-18.8,1.55-26.31-5.37-3.65-12.8-6.26-19.19-6.05-12.75.44-25.46,2.87-38.1,5-11.74,2-17.21-.42-22.3-11-5-10.36-3.34-20.4,5.1-26.62,4.18-3.08,9.81-4.31,13.69-7.65,4.63-4,11.25-9.36,11.22-14.09,0-5.54-5.22-12.59-10.2-16.14-5.6-4-13.35-5.25-20.35-6.94-18.34-4.44-31.06-21.88-31.4-43.71-.27-17.19,13.34-35.39,29.94-40,18.71-5.24,38.1,2.35,47.49,19.23,5.27,9.49,9.38,19.61,14.4,29.25,8.55,16.42,20.12,17.72,32.53,3.87C314.92,374.11,318.06,370.4,322.19,365.65Z"/><path class="cls-1" d="M561.33,339.36c-9.39,24.46-18.1,47.5-27.26,70.37-.81,2-4.41,4-6.85,4.16-56.48,4.27-113,8.29-171.45,12.5,8.05-18.45,16.61-35.07,22.55-52.58,5.6-16.53,14.7-22.42,32.55-23.26,48-2.25,95.93-7.27,143.89-11.17C556.33,339.25,557.93,339.36,561.33,339.36Z"/><path class="cls-1" d="M756.87,544.23c4.44-20.82,6.6-41,13.23-59.67,10.27-28.84,48.8-38.86,75.32-21.21-4.42,6.44-9.06,12.74-13.18,19.37-3.16,5.09-8.69,11.07-.84,16.15s10.63-2.39,14.16-7.4c4.66-6.64,9.55-13.13,14.25-19.55,25.38,14.81,41.82,55.12,33.69,82-13.64-10.59-29.51-9.89-45.36-9.78-26.34.18-52.68.05-79,.05Z"/><path class="cls-1" d="M602.87,615.46c-3.89-3.46-8.52-5.66-9.45-8.92A16.48,16.48,0,0,1,595.6,594c3.95-5.54,9.59-9.89,14.54-14.72q120-116.92,240-233.82c8.39-8.17,17.27-8.38,21.44-.45,3.6,6.84.1,11.73-4.77,16.45Q814,412.79,761.32,464.26q-72.89,71.06-145.85,142C612.1,609.57,607.83,611.91,602.87,615.46Z"/><path class="cls-1" d="M366.72,324.55q-3.45-41.64-6.88-83.29c-.19-2.29-.09-4.61-.06-6.92.1-6.7-2-12.24-9.58-12.31s-9.92,5.32-9.64,12.11c.61,14.49.11,29.14,2.17,43.41,3.76,26,8.07,52.06,14.15,77.61,2.72,11.39,1.95,20.31-5.58,30.13-1.88-6.16-3.25-11.69-5.26-17-4.33-11.41-11.94-18.54-24.2-22.46-12.08-3.87-18.12-15.1-23.72-27.86,5.88-.61,10.6-1.23,15.34-1.59,19-1.44,25.25-11.82,17-28.63-4.65-9.45-10.18-18.46-14.79-27.93-9.23-18.93-2.48-42.18,15-53,17.73-11,41.33-7.23,54.53,8.91,11.52,14.09,17.61,29,8.55,47.27-4.3,8.66-6.88,17.5-14.66,24.74-5.28,4.91-6.57,14.55-8.59,22.34-1.15,4.47-.21,9.49-.21,14.26Z"/><path class="cls-1" d="M559.76,542.94c-2.4-26.91-3.47-54.29-7.63-81.2-4.34-28,.84-53.35,12.77-78.31,5.34-11.16,9.13-23.06,14.21-36.13,10.7,13.83,20.67,26.42,30.18,39.35,1.42,1.94,1.35,5.63.81,8.27q-14.31,70.2-29,140.32C579,545.48,577,546.06,559.76,542.94Z"/><path class="cls-1" d="M390.32,333.35c0-9.62-.72-18.44.41-27,.38-2.83,5.38-7,8.55-7.23C450.43,294.77,501.63,291,552.82,287c6.32-.49,9.91,1.68,10.43,8.46.58,7.45,1.66,14.87,2.65,23.42Z"/><path class="cls-1" d="M693.94,205.18c2-10.28,3.46-19.39,5.77-28.26,2.23-8.58,8.43-12.72,17.21-11,19.42,3.7,38.81,7.63,58.1,12,9.24,2.09,13.08,8.38,11.56,17.7-1.48,9-3.52,18-5.51,28Z"/><path class="cls-1" d="M651.65,511.91c-10.1-30.14,3.12-75.1,26.26-92.43,7.81-5.85,16.47-9.09,25.74-3.74,10.19,5.88,14.18,16.07,16.47,27,.26,1.25-.84,3.21-1.9,4.25C696.37,468.38,674.43,489.71,651.65,511.91Z"/><path class="cls-1" d="M710.27,544.13l31.84-33.63,1.88.65c-2.13,9.91-4.12,19.85-6.54,29.68-.33,1.36-2.7,3.09-4.2,3.15C725.55,544.29,717.83,544.13,710.27,544.13Z"/><path class="cls-2" d="M500.83,773.14c0-23.4.06-46.79,0-70.18,0-6.9,1.21-13.37,9.34-13.57,8.83-.2,10.1,6.62,10.09,13.85q-.08,70.66,0,141.35c0,7.09-.79,14-9.9,13.92s-9.54-7.2-9.51-14.2C500.87,820.58,500.83,796.86,500.83,773.14Z"/><path class="cls-2" d="M457.32,774q0,35.07,0,70.13c0,6.89,0,14.17-9.23,14.42s-9.88-6.8-9.87-13.84q0-70.62,0-141.24c0-10.19,3.9-15.25,10.72-14.1,7,1.18,8.36,6.38,8.35,12.53Q457.25,737.93,457.32,774Z"/><path class="cls-2" d="M645.36,774.24c0,23.4-.07,46.81,0,70.21,0,7.16-.82,14-9.78,14.06s-9.88-6.85-9.88-14c.06-47.14-.13-94.27.32-141.41,0-4.4,2.9-10.48,6.42-12.78,6.35-4.16,12.79,1.94,12.84,11.74C645.45,726.11,645.36,750.18,645.36,774.24Z"/><path class="cls-2" d="M688.67,774c0-23.71.06-47.42,0-71.13,0-6.88,1.14-13.29,9.36-13.49s9.81,6.19,9.81,13.06q0,71.63,0,143.25c0,6.85-1.33,13.13-9.86,12.88s-9.31-6.65-9.29-13.44C688.72,821.41,688.67,797.7,688.67,774Z"/><path class="cls-2" d="M770.28,773.93c0,23.7,0,47.4,0,71.09,0,6.71-.5,13.24-9.1,13.53s-9.71-6-9.7-12.86c.06-47.73-.14-95.45.32-143.17,0-4.31,3-10.42,6.52-12.45,6.23-3.62,11.83,2.21,11.88,11.78C770.36,725.87,770.27,749.9,770.28,773.93Z"/><path class="cls-2" d="M582.64,774.4c0,23.72,0,47.43,0,71.15,0,7-1.42,13.07-9.78,13s-9.63-6.43-9.48-13.26c.06-2.63,0-5.27,0-7.9V707.94c0-2.63-.92-5.84.25-7.78,2.42-4,5.48-9.73,9.14-10.46,6.44-1.29,9.81,4,9.82,10.59Q582.67,737.36,582.64,774.4Z"/><path class="cls-2" d="M604.94,658.6c-6.18.2-12-1.57-12.27-9.17-.3-8.29,5.76-10.14,12.75-10.13,6.47,0,12.34,1.31,12.59,9.19C618.28,657,612.36,658.68,604.94,658.6Z"/></g></svg>