<svg xmlns="http://www.w3.org/2000/svg" viewBox="0 0 1080 1080"><defs><style>.cls-1,.cls-11{fill:#fff;}.cls-2{fill:#0d72b1;}.cls-3{fill:#31404f;}.cls-4{fill:#212c36;}.cls-5{fill:#aab2bd;}.cls-6{fill:#7bc14e;}.cls-7{fill:#def3ee;}.cls-8{fill:#fefbff;}.cls-9{fill:#3f5366;}.cls-10{fill:#58a6cc;}.cls-11{font-size:60.44px;font-family:Balbek-PersonalUseOnly, Balbek Personal Use Only;}.cls-12{letter-spacing:-0.01em;}.cls-13{letter-spacing:-0.01em;}.cls-14{letter-spacing:0em;}.cls-15{letter-spacing:-0.02em;}.cls-16{letter-spacing:-0.1em;}</style></defs><g id="Layer_1" data-name="Layer 1"><rect class="cls-1" x="-24.5" y="-24.5" width="1129" height="1129"/></g><g id="Layer_4" data-name="Layer 4"><path class="cls-2" d="M253,352.89a9.38,9.38,0,0,0,0,18.76h85.52V352.89Z"/><path class="cls-2" d="M424,352.89H338.48v18.76H424a9.38,9.38,0,0,0,0-18.76Z"/><path class="cls-3" d="M142.27,814.21c-1,0-2,0-3,0-25.93-.73-44.27-10.18-54.5-28.08-24.28-42.45,3.09-122.73,33.89-178.58,37.69-68.32,23-136.27,22.87-136.95a4.25,4.25,0,1,1,8.29-1.88c.66,2.9,15.6,71.68-23.71,142.94-32.09,58.18-55,133.38-34,170.25,8.66,15.15,24.6,23.16,47.36,23.8,21.64.59,37.2-6.1,46.12-19.93,24.13-37.44-4-116.78-8.9-126.76a4.25,4.25,0,0,1,3.82-6.11h60.12a4.25,4.25,0,1,1,0,8.5H186.78c7.73,21,30.39,91.22,6,129C182.61,806.19,165.62,814.21,142.27,814.21Z"/><path class="cls-4" d="M156.56,484.94l.09,6.09a5,5,0,0,1-4.9,5l-6.88.09a5,5,0,0,1-5-4.9l-.08-6.09Z"/><path class="cls-4" d="M170.46,482.86c-1.83-3.4-6.68-13.27-7.15-18a1.86,1.86,0,0,1,.57-1.49c2.36-2.72,9.72-4.32,11.26-4.39l-.09-5c-1,0-10.74,1.41-14.83,6a6.91,6.91,0,0,0-1.86,5.36c.68,6.65,7.43,19.29,7.72,19.82Z"/><path class="cls-5" d="M174.24,415.93,186,396.83l23.25-13-4.3-7.7-24.25,13.52a4.33,4.33,0,0,0-1.61,1.54l-12.35,20.08Z"/><path class="cls-2" d="M135.07,440.79l.58,42a5,5,0,0,0,5,4.9L176,487.2a5,5,0,0,0,4.89-5l-.57-42a5,5,0,0,0-5-4.9l-35.33.48A5,5,0,0,0,135.07,440.79Zm15.74,10a2.6,2.6,0,0,1,2.57-2.64l17.3-.23a2.6,2.6,0,0,1,2.64,2.57l.4,29.21a2.6,2.6,0,0,1-2.57,2.64l-17.3.23a2.6,2.6,0,0,1-2.64-2.57Z"/><polygon class="cls-4" points="135.1 442.86 128.98 433.83 135.71 418.38 158.62 406.34 180.5 420.17 180.36 442.24 135.1 442.86"/><path class="cls-4" d="M160.27,410l3.27-4.76a2.56,2.56,0,0,1,3.56-.66l11.78,8.1a2.55,2.55,0,0,1,.66,3.56L176.27,421Z"/><rect class="cls-2" x="200.81" y="632.42" width="40.21" height="49.41"/><rect class="cls-6" x="214.51" y="572.94" width="123.97" height="284.35"/><path class="cls-6" d="M338.48,360.36H232.41a17.89,17.89,0,0,0-17.9,17.9V572.94h124Z"/><path class="cls-6" d="M462.45,572.94V378.26a17.89,17.89,0,0,0-17.9-17.9H338.48V572.94Z"/><rect class="cls-6" x="338.48" y="572.94" width="123.97" height="284.35"/><rect class="cls-7" x="338.48" y="412.07" width="0.25" height="134.01"/><path class="cls-8" d="M338.48,399.65H249.33a17.89,17.89,0,0,0-17.9,17.9v75H338.48Z"/><path class="cls-7" d="M338.48,483.74h-107V516a17.9,17.9,0,0,0,17.9,17.91h89.4v-.26h-.25Z"/><path class="cls-7" d="M338.73,492.52h107V417.29a17.9,17.9,0,0,0-17.9-17.9h-89.4v.26h.25Z"/><path class="cls-8" d="M338.73,483.74v49.91h89.15a17.89,17.89,0,0,0,17.9-17.9v-32Z"/><rect class="cls-2" x="173.46" y="844.2" width="165.02" height="53.4"/><rect class="cls-2" x="338.48" y="844.2" width="165.02" height="53.4"/><path class="cls-3" d="M279.88,719.24a58.42,58.42,0,0,0,58.52,58.19V619.66S279.86,687.09,279.88,719.24Z"/><path class="cls-4" d="M338.4,619.66V777.43h.12a58.43,58.43,0,0,0,58.56-58.28C397.05,687,338.4,619.66,338.4,619.66Z"/><path class="cls-9" d="M314.16,737.84a11,11,0,0,1-11,11h0a11,11,0,0,1-11-11V725.67a11,11,0,0,1,11-11h0a11,11,0,0,1,11,11Z"/><rect class="cls-3" x="289.28" y="494.57" width="23.25" height="28.51"/><rect class="cls-4" x="364.43" y="494.57" width="23.25" height="28.51"/><rect class="cls-3" x="251.7" y="494.57" width="23.25" height="28.51"/><rect class="cls-4" x="402" y="494.57" width="23.25" height="28.51"/><rect class="cls-3" x="326.85" y="494.57" width="11.63" height="28.51"/><rect class="cls-4" x="338.48" y="494.57" width="11.63" height="28.51"/><rect class="cls-3" x="255.97" y="422.85" width="82.44" height="43.8"/><rect class="cls-4" x="338.4" y="422.85" width="82.59" height="43.8"/><path class="cls-2" d="M827,352.89a9.38,9.38,0,0,1,0,18.76H741.52V352.89Z"/><path class="cls-2" d="M656,352.89h85.52v18.76H656a9.38,9.38,0,0,1,0-18.76Z"/><path class="cls-3" d="M937.73,814.21c1,0,1.95,0,2.95,0,25.93-.73,44.27-10.18,54.5-28.08,24.28-42.45-3.09-122.73-33.89-178.58-37.69-68.32-23-136.27-22.87-136.95a4.25,4.25,0,1,0-8.29-1.88c-.66,2.9-15.6,71.68,23.71,142.94,32.09,58.18,55,133.38,34,170.25-8.66,15.15-24.6,23.16-47.36,23.8-21.64.59-37.2-6.1-46.12-19.93-24.13-37.44,4-116.78,8.9-126.76a4.25,4.25,0,0,0-3.82-6.11H839.28a4.25,4.25,0,0,0,0,8.5h53.94c-7.73,21-30.39,91.22-6,129C897.39,806.19,914.38,814.21,937.73,814.21Z"/><path class="cls-4" d="M923.44,484.94l-.09,6.09a5,5,0,0,0,4.9,5l6.88.09a5,5,0,0,0,5-4.9l.08-6.09Z"/><path class="cls-4" d="M909.54,482.86c1.83-3.4,6.68-13.27,7.15-18a1.86,1.86,0,0,0-.57-1.49c-2.36-2.72-9.72-4.32-11.26-4.39l.09-5c1,0,10.74,1.41,14.83,6a6.91,6.91,0,0,1,1.86,5.36c-.68,6.65-7.43,19.29-7.72,19.82Z"/><path class="cls-5" d="M905.76,415.93,894,396.83l-23.25-13,4.3-7.7,24.25,13.52a4.33,4.33,0,0,1,1.61,1.54l12.35,20.08Z"/><path class="cls-2" d="M940,435.75l-35.33-.48a5,5,0,0,0-5,4.9l-.57,42a5,5,0,0,0,4.89,5l35.33.48a5,5,0,0,0,5-4.9l.58-42A5,5,0,0,0,940,435.75ZM928.79,480a2.6,2.6,0,0,1-2.64,2.57l-17.3-.23a2.6,2.6,0,0,1-2.57-2.64l.4-29.21a2.6,2.6,0,0,1,2.64-2.57l17.3.23a2.6,2.6,0,0,1,2.57,2.64Z"/><polygon class="cls-4" points="944.9 442.86 951.02 433.83 944.29 418.38 921.38 406.34 899.5 420.17 899.64 442.24 944.9 442.86"/><path class="cls-4" d="M919.73,410l-3.27-4.76a2.56,2.56,0,0,0-3.56-.66l-11.78,8.1a2.55,2.55,0,0,0-.66,3.56l3.27,4.76Z"/><rect class="cls-2" x="838.98" y="632.42" width="40.21" height="49.41"/><rect class="cls-6" x="741.52" y="572.94" width="123.97" height="284.35"/><path class="cls-6" d="M741.52,360.36H847.59a17.89,17.89,0,0,1,17.9,17.9V572.94h-124Z"/><path class="cls-6" d="M617.55,572.94V378.26a17.89,17.89,0,0,1,17.9-17.9H741.52V572.94Z"/><rect class="cls-6" x="617.55" y="572.94" width="123.97" height="284.35"/><rect class="cls-7" x="741.27" y="412.07" width="0.25" height="134.01"/><path class="cls-8" d="M741.52,399.65h89.15a17.89,17.89,0,0,1,17.9,17.9v75H741.52Z"/><path class="cls-7" d="M741.52,483.74H848.57V516a17.9,17.9,0,0,1-17.9,17.91h-89.4v-.26h.25Z"/><path class="cls-7" d="M741.27,492.52h-107V417.29a17.9,17.9,0,0,1,17.9-17.9h89.4v.26h-.25Z"/><path class="cls-8" d="M741.27,483.74v49.91H652.12a17.89,17.89,0,0,1-17.9-17.9v-32Z"/><rect class="cls-2" x="741.52" y="844.2" width="165.02" height="53.4"/><rect class="cls-2" x="576.5" y="844.2" width="165.02" height="53.4"/><path class="cls-3" d="M800.12,719.24a58.42,58.42,0,0,1-58.52,58.19V619.66S800.14,687.09,800.12,719.24Z"/><path class="cls-4" d="M741.6,619.66V777.43h-.12a58.43,58.43,0,0,1-58.56-58.28C683,687,741.6,619.66,741.6,619.66Z"/><path class="cls-9" d="M765.84,737.84a11,11,0,0,0,11,11h0a11,11,0,0,0,11-11V725.67a11,11,0,0,0-11-11h0a11,11,0,0,0-11,11Z"/><rect class="cls-3" x="767.47" y="494.57" width="23.25" height="28.51"/><rect class="cls-4" x="692.32" y="494.57" width="23.25" height="28.51"/><rect class="cls-3" x="805.04" y="494.57" width="23.25" height="28.51"/><rect class="cls-4" x="654.75" y="494.57" width="23.25" height="28.51"/><rect class="cls-3" x="741.52" y="494.57" width="11.63" height="28.51"/><rect class="cls-4" x="729.89" y="494.57" width="11.63" height="28.51"/><rect class="cls-3" x="741.6" y="422.85" width="82.44" height="43.8"/><rect class="cls-4" x="659.01" y="422.85" width="82.59" height="43.8"/><rect class="cls-2" x="529" y="257.25" width="22" height="651"/><rect class="cls-10" x="97.5" y="871.25" width="885" height="46"/><rect class="cls-2" x="300.5" y="267.25" width="479" height="40.5"/><rect class="cls-2" x="334.5" y="162.75" width="411" height="74"/><rect class="cls-6" x="249" y="236.25" width="582" height="46"/><text class="cls-11" transform="translate(345.69 223.84)"><tspan class="cls-12">P</tspan><tspan x="30.52" y="0">ET</tspan><tspan class="cls-13" x="87.15" y="0">R</tspan><tspan class="cls-14" x="118.04" y="0">OL </tspan><tspan class="cls-15" x="189.54" y="0">S</tspan><tspan class="cls-16" x="221.69" y="0">TA</tspan><tspan x="278.02" y="0">TION</tspan></text></g></svg>