<svg xmlns="http://www.w3.org/2000/svg" viewBox="0 0 1080 1080"><defs><style>.cls-1,.cls-5,.cls-8{fill:#fff;}.cls-2{fill:#7bc14e;}.cls-3{fill:#e6e6e6;}.cls-4{fill:#0d72b1;}.cls-5{font-size:100px;}.cls-5,.cls-8{font-family:Balbek-PersonalUseOnly, Balbek Personal Use Only;}.cls-6{letter-spacing:-0.01em;}.cls-7{fill:#71c2e2;}.cls-8{font-size:73.11px;}.cls-9{letter-spacing:-0.01em;}.cls-10{letter-spacing:-0.04em;}</style></defs><g id="Layer_1" data-name="Layer 1"><rect class="cls-1" x="-24.5" y="-24.5" width="1129" height="1129"/></g><g id="Layer_4" data-name="Layer 4"><path d="M409.75,261.23H669.58v42.09H684V261.23h30.06a49.23,49.23,0,1,0,0-98.46H365.93a49.23,49.23,0,0,0,0,98.46h29.41v42.09h14.41ZM365.93,248.3c-18.32,0-33.22-16.38-33.22-36.5s14.9-36.5,33.22-36.5H714.06c18.32,0,33.23,16.37,33.23,36.5s-14.91,36.5-33.23,36.5H365.93Z"/><path class="cls-2" d="M669.58,248.3h44.48c18.32,0,33.23-16.38,33.23-36.5s-14.91-36.5-33.23-36.5H365.93c-18.32,0-33.22,16.37-33.22,36.5s14.9,36.5,33.22,36.5H669.58Zm30.34-62.4,6.23,23.65,6.22-23.65h7.78l-10.3,34.69v17.19H701.7V220.59L691.4,185.9Zm-49.13,12.46q0-6.3,3.11-9.68t9-3.37q5.92,0,9,3.37t3.12,9.68v5h-7.71v-5.55q0-5.11-4.23-5.12t-4.22,5.12v28q0,5,4.22,5t4.23-5v-7.41h7.71v6.89q0,6.3-3.12,9.67t-9,3.37q-5.93,0-9-3.37t-3.11-9.67ZM612.7,185.9h11.93l8.3,51.88H624.7l-1.41-9.41h-10l-1.41,9.41h-7.49Zm-61.14,0H562.9l6,36.83,5.56-36.83H585.8v51.88h-7.71v-37.2l-5.63,37.2h-7.71l-6.07-36.68v36.68h-7.12Zm-44.54,0h12.31c4.19,0,7.26,1,9.18,2.93s2.9,4.95,2.9,9v4.07q0,8-5.34,10.53a7.47,7.47,0,0,1,4.15,4,17.19,17.19,0,0,1,1.26,7.08v8a34.33,34.33,0,0,0,.15,3.59,8.9,8.9,0,0,0,.74,2.71h-8.3a11.08,11.08,0,0,1-.59-2.37,35.37,35.37,0,0,1-.15-4v-8.15q0-3.56-1.26-5.07a5,5,0,0,0-4.08-1.52h-2.81v21.12H507Zm-38.83,0h11.93l8.3,51.88h-8.23l-1.4-9.41h-10l-1.4,9.41h-7.49Zm-52.61,0h8.15v22.24H433V185.9h8.3v51.88H433V215.55h-9.26v22.23h-8.15ZM397,205.47q0,6.3-3,9.56t-9.12,3.26H381v19.49h-8.15V185.9h12q6.07,0,9.12,3.27t3,9.55Z"/><polygon class="cls-3" points="618.25 195.09 614.33 221.33 622.18 221.33 618.25 195.09"/><path class="cls-4" d="M613.29,228.37h10l1.41,9.41h8.23l-8.3-51.88H612.7l-8.31,51.88h7.49Zm5-33.28,3.93,26.24h-7.85Z"/><path class="cls-4" d="M662.94,238.37q5.92,0,9-3.37t3.12-9.67v-6.89h-7.71v7.41q0,5-4.23,5t-4.22-5v-28q0-5.11,4.22-5.12t4.23,5.12v5.55h7.71v-5q0-6.3-3.12-9.68t-9-3.37q-5.93,0-9,3.37t-3.11,9.68v27q0,6.3,3.11,9.67T662.94,238.37Z"/><polygon class="cls-4" points="701.7 237.78 709.85 237.78 709.85 220.59 720.15 185.9 712.37 185.9 706.15 209.55 699.92 185.9 691.4 185.9 701.7 220.59 701.7 237.78"/><text class="cls-5" transform="translate(342.25 485.13)">AR <tspan class="cls-6" x="135.3" y="0">F</tspan><tspan x="175.5" y="0">OODS</tspan></text><rect class="cls-2" x="360" y="185" width="369" height="59"/></g><g id="Layer_6" data-name="Layer 6"><path d="M628.8,862.3H555.64V643.86h67.57c1.71,0,3.43.14,5.59.24Zm90.36.21H645.9V644.29h73.26Zm64.41-.25H736c-.12-2.41-.34-4.85-.34-7.28q0-107.24,0-214.46c0-11.29-1.63-12.93-12.71-12.93H551.76c-10.83,0-12.88,2-12.89,13v222H296.31V504.24c3.88,4.09,7.44,6.92,9.82,10.51,4.69,7.15,8.59,14.82,13.12,22.09a84.48,84.48,0,0,0,8.89,12.25c13.27,14.77,33.91,15.57,47.37,1,6.49-7,11-16,16.29-24.06,3.32-5,6.1-10.48,9.89-15.11,8-9.78,18.44-10.08,26.17-.16,5.82,7.47,10.1,16.13,15.2,24.15,2.93,4.6,5.77,9.32,9.33,13.41,14.39,16.6,36.79,16.39,50.61-.74,5.1-6.32,8.94-13.65,13.29-20.55,2.89-4.61,5.38-9.51,8.58-13.89,9.33-12.74,20.81-12.9,30-.15,4.74,6.62,8.38,14,12.69,20.95a123.7,123.7,0,0,0,9.16,13.51c14.3,17.45,37.18,17.71,51.33.05,6.27-7.83,10.77-17.07,16.19-25.6,2.61-4.09,5.15-8.32,8.35-11.92,7.6-8.53,17.18-8.69,24.7-.07,4.19,4.78,7.25,10.55,10.7,16,4.38,6.88,8.07,14.29,13.06,20.69,14.33,18.39,37.38,18.92,52,.88,6.3-7.78,10.66-17.13,16.24-25.57,3.86-5.85,8.27-11.34,12.44-17l1.87,1.06ZM866,531.08c-.34,6.55-3.28,12.14-10.13,14.31-7,2.23-12.48-1.17-16.12-6.55-5.33-7.87-9.56-16.47-14.66-24.48-3.86-6-7.67-12.34-12.71-17.31-13.88-13.68-33.86-13.13-46.43,1.77-6.95,8.25-11.82,18.21-17.79,27.3-3,4.54-5.89,9.26-9.59,13.16-6.29,6.62-15.59,6.88-21.8.2-4.69-5.07-8.17-11.29-12.06-17.08-5.41-8-9.83-17-16.21-24.14-13.23-14.88-34.09-14.87-47.18.16-6.81,7.83-11.57,17.43-17.3,26.21-2.87,4.39-5.47,9-8.85,13-7.57,8.9-18.23,9-25.49-.2-5.14-6.53-8.86-14.15-13.45-21.13-4.16-6.32-8-13-13.09-18.52-13.19-14.12-33.61-14.25-46.42.23-6.87,7.77-11.62,17.4-17.43,26.13-3.32,5-6.33,10.35-10.36,14.74-6.73,7.36-16.68,7.44-23.05-.21-5.29-6.37-9.17-13.91-13.77-20.88-4.28-6.47-8-13.46-13.17-19.19-13.51-15.08-34.3-15.3-47.66-.17-6.34,7.21-10.76,16.11-16.13,24.2-3.65,5.49-6.89,11.39-11.27,16.23-6.73,7.43-16.72,7.56-23-.25s-11-16.92-16.46-25.37c-3.07-4.72-6-9.61-9.7-13.84C301.35,484.05,281,483,267,497.7c-6.44,6.76-10.74,15.58-15.89,23.55-3.89,6-7.27,12.43-11.5,18.2-3.62,4.95-8.75,7.95-15.27,6-6.9-2-9.92-7.51-10.42-14.07-.49-6.36-.74-12.93.29-19.18q15.74-95.94,32-191.77c.15-1,.42-1.89.75-3.39H431.81c3.53,34,18.61,61.58,46.78,81.23,20.13,14.07,42.74,20,67.3,19,41.87-1.7,95.31-33.81,102.51-100.15H833.16c3.06,18.77,6,37.39,9.13,56,7.64,45.69,15.48,91.34,22.94,137.05A98.49,98.49,0,0,1,866,531.08Z"/><path class="cls-2" d="M247,317.08H431.81c3.52,34.05,18.62,61.57,46.78,81.23,20.14,14.06,42.74,20,67.31,19,41.86-1.71,95.3-33.81,102.49-100.15H833.15c3.06,18.77,6,37.38,9.14,56,7.65,45.68,15.48,91.33,22.94,137a99.15,99.15,0,0,1,.73,20.89c-.35,6.55-3.29,12.13-10.14,14.31-7,2.24-12.48-1.17-16.12-6.56-5.33-7.86-9.55-16.46-14.67-24.47-3.85-6-7.66-12.34-12.7-17.31-13.88-13.68-33.86-13.13-46.43,1.77-6.95,8.24-11.82,18.21-17.79,27.3-3,4.54-5.89,9.25-9.59,13.16-6.29,6.63-15.59,6.88-21.8.19-4.7-5.06-8.17-11.28-12.06-17.07-5.41-8.06-9.83-17-16.21-24.14-13.22-14.88-34.1-14.86-47.18.16-6.82,7.82-11.57,17.44-17.3,26.21-2.87,4.39-5.47,9-8.84,13-7.58,8.9-18.23,9-25.5-.21-5.14-6.52-8.86-14.15-13.45-21.13-4.16-6.32-8-13-13.09-18.52-13.19-14.11-33.61-14.24-46.42.24-6.87,7.76-11.63,17.39-17.43,26.12-3.32,5-6.34,10.35-10.36,14.74-6.74,7.36-16.68,7.44-23-.21-5.3-6.37-9.18-13.91-13.78-20.87-4.28-6.48-8-13.47-13.17-19.2-13.51-15.08-34.31-15.3-47.65-.17-6.36,7.21-10.77,16.11-16.14,24.19-3.65,5.5-6.88,11.4-11.27,16.24-6.72,7.43-16.71,7.56-23-.24s-10.95-16.93-16.46-25.39c-3.07-4.72-6-9.6-9.7-13.83C301.35,484.05,281,483,267,497.69c-6.43,6.77-10.73,15.6-15.88,23.56-3.89,6-7.26,12.43-11.5,18.2-3.62,4.95-8.75,7.95-15.27,6-6.91-2-9.92-7.51-10.42-14.07-.5-6.36-.74-12.93.29-19.18q15.75-95.92,32-191.77C246.37,319.52,246.62,318.58,247,317.08Z"/><path class="cls-4" d="M781.7,504.83c-4.17,5.66-8.58,11.15-12.44,17-5.58,8.44-9.94,17.79-16.24,25.57-14.64,18-37.69,17.51-52-.88-5-6.4-8.68-13.81-13.06-20.69-3.45-5.41-6.51-11.18-10.7-16-7.52-8.62-17.1-8.46-24.7.07-3.2,3.6-5.74,7.83-8.35,11.92-5.42,8.53-9.92,17.77-16.19,25.6-14.15,17.66-37,17.4-51.33-.05a123.7,123.7,0,0,1-9.16-13.51c-4.31-6.92-8-14.33-12.69-20.95-9.14-12.75-20.62-12.59-30,.15-3.2,4.38-5.69,9.28-8.58,13.89-4.35,6.9-8.19,14.23-13.29,20.55-13.82,17.13-36.22,17.34-50.61.74-3.56-4.09-6.4-8.81-9.33-13.41-5.1-8-9.38-16.68-15.2-24.15-7.73-9.92-18.17-9.62-26.17.16-3.79,4.63-6.57,10.08-9.89,15.11-5.32,8.1-9.8,17-16.29,24.06-13.46,14.61-34.1,13.81-47.37-1a84.48,84.48,0,0,1-8.89-12.25c-4.53-7.27-8.43-14.94-13.12-22.09-2.38-3.59-5.94-6.42-9.82-10.51v358.3H538.87v-222c0-10.92,2.06-13,12.89-13H723c11.08,0,12.71,1.64,12.71,12.93q0,107.22,0,214.46c0,2.43.22,4.87.34,7.28h47.55V505.89ZM464.14,758.28q-54.86.06-109.72,0c-7.52,0-10.16-2.68-10.19-10.26-.06-18.28,0-36.57,0-54.86s0-36.59,0-54.87c0-8.38,2.37-10.68,10.83-10.69q54.57,0,109.14,0c8.07,0,10.44,2.37,10.44,10.43q.06,54.87,0,109.75C474.63,755.64,472,758.27,464.14,758.28Z"/><path class="cls-7" d="M719.15,862.5H645.89V644.3h73.26Z"/><path class="cls-7" d="M555.64,643.87c22.83,0,45.2,0,67.56,0,1.72,0,3.44.14,5.61.23V862.3H555.64Z"/><path d="M474.63,638c0-8.06-2.37-10.42-10.44-10.43q-54.57,0-109.14,0c-8.46,0-10.81,2.31-10.83,10.69-.05,18.28,0,36.58,0,54.87s0,36.58,0,54.86c0,7.58,2.67,10.25,10.19,10.26q54.87.09,109.72,0c7.89,0,10.49-2.64,10.5-10.5Q474.69,692.91,474.63,638ZM458.15,741.86H360.74V644.18h97.41Z"/><path class="cls-7" d="M360.74,644.18v97.68h97.41V644.18Zm14.93,51c-.88-2.51-.68-6.77.95-8.54,8.41-9.16,17.31-17.87,26.3-26.5,3.42-3.29,7.58-3.09,10.94.33s3.57,7.54.25,11c-8.65,9-17.52,17.7-26.44,26.38-1.29,1.25-3.38,1.66-5.9,2.83C379.63,698.81,376.46,697.4,375.67,695.14Zm65.39-10.55q-19.81,20.13-39.89,40c-4.08,4.06-9,4.22-12.37.72-3-3.16-2.86-8.31.8-12,13.39-13.5,26.73-27.07,40.48-40.2,2.05-2,6.44-2.7,9.31-2.08,2.28.5,3.92,4,6.09,6.4C443.63,680.49,442.71,682.91,441.06,684.59Z"/><path d="M445.48,677.44c-1.85,3-2.76,5.47-4.42,7.15q-19.81,20.13-39.88,40c-4.09,4.06-9,4.22-12.38.72-3-3.17-2.86-8.3.8-12,13.39-13.52,26.73-27.08,40.49-40.21,2-2,6.43-2.71,9.31-2.08C441.67,671.53,443.3,675,445.48,677.44Z"/><path d="M381.77,700.61c-2.14-1.79-5.31-3.21-6.1-5.47-.88-2.5-.68-6.78.94-8.54,8.42-9.16,17.32-17.88,26.3-26.5,3.43-3.29,7.59-3.09,10.95.33s3.56,7.54.24,11c-8.64,9-17.5,17.69-26.43,26.37C386.39,699,384.29,699.44,381.77,700.61Z"/><path d="M431.58,300.73H244.34c-9.93,0-11.54,1.22-13.12,10.78-4.69,28.42-9.17,56.87-13.93,85.27-5.56,33.2-11.59,66.32-16.86,99.56a196.3,196.3,0,0,0-2.67,34.81c.36,15.38,8.84,25.82,21.92,29.83,12.15,3.72,24.57-.63,33.8-12.58,4-5.2,7.16-11.1,10.51-16.79,4.51-7.64,8.82-15.4,13.23-23.11l2.46.82V866c0,11.07,1.87,13,12.82,13H787.32c1.35,0,2.72.06,4.08,0,5.66-.31,8.41-3.05,8.75-8.79.1-1.75,0-3.51,0-5.26q0-174.4,0-348.81v-7l2.11-.47,9.78,15.72c5.63,9,10.45,18.77,17.14,27,7.4,9.09,17.7,13.18,29.8,10,12.6-3.35,20.36-11.72,22.17-24.35a94.15,94.15,0,0,0,.28-26.66c-3.46-23.68-8.15-47.16-12.05-70.77-7-42.63-13.81-85.3-20.76-127.93-1.57-9.61-3.19-10.83-13.08-10.83H648.31M628.8,862.3H555.64V643.86h67.57c1.71,0,3.43.14,5.59.24Zm90.36.21H645.9V644.29h73.26Zm64.41-.25H736c-.12-2.41-.34-4.85-.34-7.28q0-107.24,0-214.46c0-11.29-1.63-12.93-12.71-12.93H551.76c-10.83,0-12.88,2-12.89,13v222H296.31V504.24c3.88,4.09,7.44,6.92,9.82,10.51,4.69,7.15,8.59,14.82,13.12,22.09a84.48,84.48,0,0,0,8.89,12.25c13.27,14.77,33.91,15.57,47.37,1,6.49-7,11-16,16.29-24.06,3.32-5,6.1-10.48,9.89-15.11,8-9.78,18.44-10.08,26.17-.16,5.82,7.47,10.1,16.13,15.2,24.15,2.93,4.6,5.77,9.32,9.33,13.41,14.39,16.6,36.79,16.39,50.61-.74,5.1-6.32,8.94-13.65,13.29-20.55,2.89-4.61,5.38-9.51,8.58-13.89,9.33-12.74,20.81-12.9,30-.15,4.74,6.62,8.38,14,12.69,20.95a123.7,123.7,0,0,0,9.16,13.51c14.3,17.45,37.18,17.71,51.33.05,6.27-7.83,10.77-17.07,16.19-25.6,2.61-4.09,5.15-8.32,8.35-11.92,7.6-8.53,17.18-8.69,24.7-.07,4.19,4.78,7.25,10.55,10.7,16,4.38,6.88,8.07,14.29,13.06,20.69,14.33,18.39,37.38,18.92,52,.88,6.3-7.78,10.66-17.13,16.24-25.57,3.86-5.85,8.27-11.34,12.44-17l1.87,1.06ZM866,531.08c-.34,6.55-3.28,12.14-10.13,14.31-7,2.23-12.48-1.17-16.12-6.55-5.33-7.87-9.56-16.47-14.66-24.48-3.86-6-7.67-12.34-12.71-17.31-13.88-13.68-33.86-13.13-46.43,1.77-6.95,8.25-11.82,18.21-17.79,27.3-3,4.54-5.89,9.26-9.59,13.16-6.29,6.62-15.59,6.88-21.8.2-4.69-5.07-8.17-11.29-12.06-17.08-5.41-8-9.83-17-16.21-24.14-13.23-14.88-34.09-14.87-47.18.16-6.81,7.83-11.57,17.43-17.3,26.21-2.87,4.39-5.47,9-8.85,13-7.57,8.9-18.23,9-25.49-.2-5.14-6.53-8.86-14.15-13.45-21.13-4.16-6.32-8-13-13.09-18.52-13.19-14.12-33.61-14.25-46.42.23-6.87,7.77-11.62,17.4-17.43,26.13-3.32,5-6.33,10.35-10.36,14.74-6.73,7.36-16.68,7.44-23.05-.21-5.29-6.37-9.17-13.91-13.77-20.88-4.28-6.47-8-13.46-13.17-19.19-13.51-15.08-34.3-15.3-47.66-.17-6.34,7.21-10.76,16.11-16.13,24.2-3.65,5.49-6.89,11.39-11.27,16.23-6.73,7.43-16.72,7.56-23-.25s-11-16.92-16.46-25.37c-3.07-4.72-6-9.61-9.7-13.84C301.35,484.05,281,483,267,497.7c-6.44,6.76-10.74,15.58-15.89,23.55-3.89,6-7.27,12.43-11.5,18.2-3.62,4.95-8.75,7.95-15.27,6-6.9-2-9.92-7.51-10.42-14.07-.49-6.36-.74-12.93.29-19.18q15.74-95.94,32-191.77c.15-1,.42-1.89.75-3.39H431.81c3.53,34,18.61,61.58,46.78,81.23,20.13,14.07,42.74,20,67.3,19,41.87-1.7,95.31-33.81,102.51-100.15H833.16c3.06,18.77,6,37.39,9.13,56,7.64,45.69,15.48,91.34,22.94,137.05A98.49,98.49,0,0,1,866,531.08Z"/><rect class="cls-2" x="387" y="318" width="348" height="103"/><text class="cls-8" transform="translate(374 238.18)"><tspan class="cls-9">P</tspan><tspan x="36.92" y="0">HARM</tspan><tspan class="cls-10" x="212.39" y="0">AC</tspan><tspan x="290.77" y="0">Y</tspan></text><circle class="cls-4" cx="540" cy="401.8" r="71.2"/><path class="cls-1" d="M554.1,351.19V387.8h36.4v28H553.9v36.6H526.1V415.8H489.5v-28h36.6V351.19Z"/></g></svg>